<mxfile host="app.diagrams.net" modified="2024-06-16T21:26:52.325Z" agent="Mozilla/5.0 (X11; Linux x86_64; rv:126.0) Gecko/20100101 Firefox/126.0" etag="cXkRNzME2UgIZ7dIgV8n" version="24.5.4" type="device">
  <diagram name="Page-1" id="Wps6wDkrGyNnSPho-xD6">
    <mxGraphModel dx="1178" dy="588" grid="1" gridSize="10" guides="1" tooltips="1" connect="1" arrows="1" fold="1" page="1" pageScale="1" pageWidth="850" pageHeight="1100" math="0" shadow="0">
      <root>
        <mxCell id="0" />
        <mxCell id="1" parent="0" />
        <mxCell id="UOA3We7-B9F3SWthIIVE-1" value="" style="shape=image;html=1;verticalLabelPosition=bottom;verticalAlign=top;imageAspect=1;aspect=fixed;image=data:image/png,iVBORw0KGgoAAAANSUhEUgAABSEAAAHVCAYAAAAOxz6WAAAACXBIWXMAAC4jAAAuIwF4pT92AAAAGXRFWHRTb2Z0d2FyZQB3d3cuaW5rc2NhcGUub3Jnm+48GgAAIABJREFUeJzs3Xl81PWB//H3zISEXJP7DuGWQ7zqiQq2WkUQpVu127Wtbe12a7vbrdvt7v7atdu6R9tdu21t1wNrUWu19RYIN0FOuQlnuENCLpIQCLkm18z39wdlyHAGZD6fhHk9Hw8f5ku+mXlnvjOQeedzuBzHcQQAAAAAAAAAYeK2HQBA+HV2dmrDhg2qra21HQWGdHd3a8OGDaqpqbEdBYY4jqMNGzaosrLSdhQYtHHjRh08eNB2DBhUXFysAwcO2I4Bg7Zu3ar9+/fbjgGDduzYoT179tiOAYN27typXbt22Y4Bg3bv3q2SkhLbMYyjhAQiQHt7u4qKinijGkG6urpUVFTEG9UIEggEVFRUpH379tmOAoOWLFnCm5YIs2zZsoh80xLJVq5cqa1bt9qOAYNWr16t4uJi2zFg0Pr167VhwwbbMWDQpk2btGbNGtsxjKOEBAAAAAAAABBWUbYDAAi/qKgojRw5UikpKbajwBCPx6ORI0cqNTXVdhQY4nK5NHLkSKWnp9uOAoNGjhypzMxM2zFg0PDhw5WdnW07BgwaOnQo/55HmMGDBysuLs52DBhUUFAgl8tlOwYMys/PV2dnp+0YxrnYmAYAAAAAAABAODEdGwAAAAAAAEBYUUICAAAAAAAACCtKSAAAAAAAAABhRQkJAAAAAAAAIKwoIQEAAAAAAACEFSUkAAAAAAAAgLCihAQAAAAAAAAQVpSQAAAAAAAAAMKKEhKIAM3NzXrmmWdUXFxsOwoMaW9v1zPPPKN169bZjgJD/H6/nnnmGa1atcp2FBj0m9/8RkuXLrUdAwa98MILWrhwoe0YMGjGjBmaM2eO7Rgw6A9/+IM++OAD2zFg0Jtvvqm33nrLdgwY9N577+n111+3HcO4KNsBAISf4zhqb29Xd3e37SgwhGsemdrb29XV1WU7Bgxqb29XZ2en7RgwiNd55OF1Hnna29s1YMAA2zFgUEdHh9xuM2PEfD6fXnvtNSP3dT6tra3au3evRowYoYSEBNtxjFq/fr1SU1P1hS98wXYUoyghAQAAAAAAIsCSJUv0jW98w3YM/Nno0aP11a9+1XYMY1yO4zi2QwAIL7/fr8OHDysxMVFxcXG248AAx3FUV1enhIQExcfH244DQ2praxUfHx9xv0mOZLW1tYqNjZXX67UdBYbU19crJiaGax5B6uvrFR0draSkJNtRYEhDQ4PcbrdSUlJsR4EhR44ckSSlpqaG/b4ef/xxTZ8+Pez3g975/ve/r5/85Ce2YxhDCQkAAAAAAHCZcxxHBQUFqqyslCR94hOfMFJ8nk1dXZ2qqqqUk5Oj7Oxsazlsyc7O1i9+8QtlZGTYjmIMJSQAAAAAAMBlbuPGjbrhhhskSR6PR4cOHVJ6errlVIgk7I4NAAAAAABwmSssLAx+PH78eApIGEcJCQAAAAAAcJmbPXt28OOpU6daTIJIxXRsAAAAAACAy1h1dbXy8/N1ogLasWOHxo4dazkVIg0jIQEAAAAAAC5jhYWFwQJy2LBhFJCwghISAAAAAADgMtZzPcj777/fYhJEMkpIAAAAAACAy5TP51NRUVHwmBIStlBCAhGgs7NTGzduVF1dne0oMKS7u1sbN25UTU2N7SgwxHEcbdy4UVVVVbajwKDi4mJVVFTYjgGDtmzZorKyMtsxYNC2bdtUWlpqOwYMKikp0d69e23HgEG7du3S7t27w3b7RUVFamtrkyR5vV5NmDAhbPeF3tm7d69KSkpsxzCOEhKIAO3t7Vq8eLHKy8ttR4EhXV1dWrx4sQ4cOGA7CgwJBAJavHgxb1oizOLFi7Vz507bMWDQhx9+qB07dtiOAYNWrFihLVu22I4Bgz766CNt2rTJdgwYtG7dOq1fvz5st99zV+xJkyYpOjo6bPeF3tmwYYPWrFljO4ZxlJAAAAAAAACXIcdxNHfu3OAxU7FhU5TtAADCLyoqSsOHD1dycrLtKDDE4/Fo+PDhSklJsR0FhrhcLg0fPlxpaWm2o8Cg4cOHKyMjw3YMGDRs2DBlZmbajgGDhgwZotTUVNsxYFBBQYFiY2Ntx4BB+fn5crlcYbnt4uJiVVZWSjr+HmHy5MlhuR9cmLy8PHV0dNiOYZzLObFHOy65neU+bS9rDR6PH+tVfsalH/a8t9KnzftP3s8nRiZoeO7AS34/JpSUt2lHWVvw+OYxiSrIjLGYCAAAAACA/umpp57Sj3/8Y0nS7bffrhUrVtgNhIjGSMgwem9Fg56ccXINvrd/NFoP3XHpR6jMWXtU//DsyXXfnv3OMH1rWs4lvx8T3l7aoB+/ejB4/IcfXKEvfJoRHgAAAAAAXKie60FOnTrVYhKANSEBAAAAAAAuOzU1NSGbHLEeJGyjhAQAAAAAALjMFBYW6sQKfMOGDdPYsWMtJ0Kko4QEAAAAAAC4zPScis0oSPQFrAl5Gbh9nFc/+/rg4PH4sV6LaT6eT1+fpIHRJ7+X60bGW0wDAAAAAED/4/P5VFRUFDxmPUj0BZSQl4EbRiXohlEJtmNcEreN8+q2cf23RAUAAAAAwLaioiK1tbVJkrxeryZOnGg5EcB0bAAAAAAAgMtKYWFh8ONJkyYpOjraYhrgOEpIAAAAAACAy4TjOJozZ07wmPUg0Vf0u+nYuyt8Wr2jWXurfDra3K2AIyUnRGl47kDdPCZBVw/7eGsI7q7wacXWJlUd7lRDU5c6uhwlxnmUnhSlcUPidOs4r1ITL83DdqS5W4Wrj+hATYfqGrs0MNqlvPQYXX9FvG6/yiuP23VJ7qe3Wnx+/WFxvbaVtinKI/3VnRm6ZWxir7++7FCHlm4+poN1HTp0pFPRA9zKSR2gW/88xdrEt1N7tEvz1x1V2aGTj2l+RoyuHBKnT12bpAFRFx/iSHO3VmxtUkl5mxqautXc5lfMAJeS4qM0uiBW11+RoNEFsZfwu7l0mpub9fLLL2vixIm69tprbceBAe3t7XrxxRc1fvx43XjjjbbjwAC/369nn31WN9xwg2699VbbcWDIs88+q3HjxumOO+6wHQWGvPjiixo6dKjuvvtu21FgyMsvv6ysrCxNmTLFdhQY8vrrryshIUHTpk2zHQWGvPXWW3K73XrooYcuye0VFxersrJSkuTxeDR58uRLcru4dN5//335fD498sgjtqMY1W9KyNcX1+t/365S8d7Wc543bmicnvziIP3lp9J7fdut7X69NKdWv3ynWuW1Hec8d0CUS/femKL/eKxA1wy/uMKzoalbTzxbqreXNqijK3DGczKTB+iJh3L1j5/LU/R5irPXFtXpO/93IHj89DeG6GtTsk47r6KuQ9d8fXPw+OePD9Fjk4+f986yBv39/5WqpqEz+PlhOQNDSshP/sN2bS09/vh/6tokvfvUaEnSwboOPfF/B/TBqgY5zpkzDssZqP94rECP3JVxzu/l2Q9q9MOXDwaPp393uB6+4/zXsnhvq/75xTJ9WHxM/sCZQ6QmRunRezL1oy8PUnJC75/6izY26mdvVGrp5mM6y00HjR0cp3/+fJ6+dE+mkdK1txzHkc/nU1dXl+0oMIRrHpl8Pp86OzvPfyIuG21tberoOPfPLri8tLW18TqPMD6fj9d5hPH5fIqK6jdv1XEJtLe3y+2+dBNVe+6Kfcsttyg9vff9CMxob29Xe3u77RjG9fm/2Vrb/frLf9+tOWuO9ur87Qfa9Pn/2K2FGxr12++NOG8RtKfSp/t/sFN7Kn29uv2ubkezVx/R3LVH9eI/Dg+WeL21cU+Lpj25U1WHz/3DY11jl37wUrleW1SneT+7UoOzYs56bkeno6PN3SePz1JsBhydct7xRu3VBXX62tP7zlrendDc5g9+fYvPL0latb1J9//rzpDbPZPSmnZ94b/2aOOeFv3vN4ee9bz2zkDIbXV2nTuT40g/fLlcP3uj6rz5jzR361fvVuuPS+r1+r9eobs+kXzO8zu6Anr8l/v1yvy6c57XU0l5m77y33v1/soG/emHozQwmhUPAAAAAADm9CwhmYqNvqRPl5ABR5r25E4VbTp2xs/HxbjV7XfU2X16+TRjXq0KMmP0oy8POuvtl9d26Na/26qGpjMXaLExbrkktXWcXur5A46+/vN9GjUotte7Odcc6dQTz5aeVkC6XJJLOuMou53lPt3xxDYt/eVVGpJ99iLyYi0pPqbH/mfveUf4ncmBmvaQAtLtkkYVxCo7JVpHW7q1/UCbuv2hN/yLt6t1w6gE/dWd5x4R2RuOI33n/0r1m/drzvh5b5xHnd2O2jtDr1/t0S498K87NfdnY3XHNUlnve3PPbVbsz46csbPe9wuJcZ51Nhy5ufOzFVH9M/Ty/Trbw+7gO8ofOLj4/Xoo4/K62Xn8UgRExOjRx99VImJvV9SAf2bx+PRo48+qoSEBNtRYNCXvvQlxcXF2Y4Bg/7qr/5KAwcOtB0DBj300EMaMGCA7RgwaNq0afJ4PLZjwKApU6bI5bo0U+lqamq0adOm4DElZN90zz33KBA48wCyy1mfLiFnzK09rYC875YUfffhPF0zPF5p3ig5zvFyb9GGRj05o1yV9ScLvv/+U6W+PjVLuWln3gXqiWcPhBSQLpf0xU9n6hv3Z2l0QZzSvMcfnmOtfu2u8On1xXV6buahYLEWcKR/e/mgiv53XK++n+//tlyt7cdHEA6MduuJB3P1xbszNDI/Vi4dL0XfXnZY//tWVUiu8toOfeW/9+rDX4zTJfp7SZLU2NKtr/z3yQIyNsatT16TpOuvSFBinOecIwU7uhz95b/v1tHmbg2Icum7D+fpO5/NUU6Px7qxpVtPv1mln71RGVJy/viViktSQs6YV3taAXn1sHj94Av5uu+WFCXEHv+He9dBn343t1bPvFetrj8X1m0dAf3lv+/Wnteulzfu9H/g31l++LQC8qphcfrBI4M04WqvslIGKMrjUkdXQJX1nVqw/qh++kZlyPPv2Q9q9P8eyT/r888kj8ejnJwc2zFgkNvt5ppHIK555MnOzrYdAYZlZV3YLBz0f5mZmbYjwLCMjI//Xgn9y6WcLl1YWCjnz+ukDRs2TGPHjr1kt41LJy0tzXYEK/p0CfnC7EMhx088mKtf/m3oVF6XS8pNi9aXJ2Xqrk8k69qvFwcLPF9HQB+sbNC3pp3+pqyusUuzVjWE/NkvvjVUTzyYe9q5SfEe3TQ6QTeNTtAnr03Sgz/aFVz7cNmWJrX4/MHC61xOFJC5adFa+PSVunJI6MiFEXkD9f1H8vXVezP1F/+2S2tKmoOfW7blmF6eX3vB07/P5X/+VBUcyffNB7L11FcKlJHcu9+yLt96TI4jxQxw6/3/GK3JN6Wcdk5yQpT+62uDj69v+ezJNSv3VPq0p9KnK/IvfhOX6oZOfe+FspA/+/yd6XrlX0YqZkDoFOjRBbF6+vEhmnJLiqb8v5LgyMjao116sfCQvve5vNNu/6U5tSHHE6/2av5/X6nYmNDbjhng1vDcgfrWtBw9dEe6bvrmluC6ogFHmr/u6CW9ZgAAAAAAnA1TsdGX9dkF65rb/Nq4pyV4HD/Qo//8WsE5vyY/I1rffCC0cFy7s+WM567d2RwyOu/aEfH6zmdPLyBP9Re3p+nmMSenN/oDznnXd+xpQJRLhT8Ze1oB2VN2arTm/HSshuWETrX51bvVvb6f3jhRQP74ywV67onhvS4gJQVL2P94rOCMBWRP3/5srobnhn4vZYc+3uLav36vJmQq9PVXJJyxgOzpU9cmnTY9/09LDp/x3NU9CmBJeu6J4acVkKfKTB6g7z4cWmgerGMRcQAAAABA+Pl8PhUVFQWPp06dajENcLo+W0IeOhJa7OWmRyt+4PlHG959Q7I+ff3J//LSzzwVtue0WUl64NbUXk91HjUodATfiRGOvfG303J03cjz76qdmhilZ/4udNTnttI2rd3ZfJavuDg3jkrQDx89+7qZ55KXHq1/eOj8xa3bJd19fejU7gt5zE7V2e3o5XmhIxX/95tDzllAnvCtaTmK61Embt7XelqWY61+Nbed/LMReQPPWRr3NLrglOeGL/LWeAAAAAAAmFdUVKS2tjZJktfr1cSJEy0nAkL12enYMafsKnygpl2Hj3UpPenco/UmXu3VoqevPO/t/8Xtqbpp9MnF+8+1+/SpzrcL89m4XNLff7b363VNHZ+qMYNjtbP85M7dRZuOhYzE/Li+/dmc8+4gfjZfujtTUZ7efXFW6qVbTHvF1mOqa+wKHo8ZHHvWDWZO5Y3z6LZxXi3a2Cjp+LU8UNOhcUNPloyxMW5teOGa4HHiGdaMPJuLfW4AAAAAAPBxFBYWBj+eNGmSoqPt708A9NRnS8jctGh54zxq+vOItG6/owd/tEtv/tsoZad+/BdSdmr0Rd1OZ7dz1ine5/OJkQkamnNhuxk+cleGfjjjYPB43a5LOxLy3hvPPZX6XCZc3fudlt2XcEedU6dKf+a2C1vQ9fV/vULNvpMjHU/dOCY6yqXrr7i43WVXbG26qK8DAAAAAOBiOY6jOXPmBI9ZDxJ9UZ8tIaM8Lj04MU0vz68L/tnyrU0a+aVN+uq9mZp2W6omXp2kAVGXcLvoc2hq82vltib9/M0q7a30nf8LzqDnyMveGj82dNRjSfnF3feZDMqMuaB1IE916tRjU9bvCi2BPzHywh7XjOQBH+v7PlW339GOsja9tqhev3rn0q7bCQAAAADA+RQXF6uyslKS5PF4NHnyZMuJgNP12RJSkv7za4O1aGNjyPqNLT6/fvN+jX7zfo0SYj26ZWyibh/n1YSrvRo/NvG8m4ecS8CRSqvbta/Kp71V7dpbefz/eyp8OnCoPbgZy8U6dS3J3hg3NHT9yCNNXWc588JlfswiLjnBztOnpiF0Pc+LeVwvxuFjXdp18PhzYl+VT/uq2rW3yqed5b7gjtsAAAAAAJjWc1fsW265Renp6RbTAGfWp0vI3LRoLf/VVXrkv/ZoTcnp05BbfH4t3tioxX9e3y82xq07r0vSlydl6i9uT+v1eoVLNx/TczMPadHGxpAdly+1iyntUhJDv6axxS/HUa830TmXpPjer3V4JtGGRqGeqrE1dCOZpISP932cS9XhTj3zbrXeX9mgfVXtYbufcOvs7NSOHTuUn5+vjIwM23FggN/v19atW5WTk6Ps7GzbcWCA4zjavHmzsrKylJt7/k3DcHnYvHmz0tPTlZ+fbzsKDNm6dauSkpI0ePBg21FgyI4dOxQXF6ehQ4ee/2RcFnbu3Kno6GgNHz7cdhQYsmfPHknSFVdccdG30XM9SKZi93379u1Td3e3Ro8ebTuKUX12d+wThuYM1Ee/uVrv/Hi07rwu6ZybqPg6Apqz5qg+99RuXfW1Yq3cdu71+aoOd+qz/7ZLn/rudr297PA5C0iX6/gGKP/6xXxNujH5rOedS292bz5VdJQrpEy9hEsrynOxO9JY1nPnakkhu11fKgFH+ukblRr16CY9/WbVeQvING+UvnR3pp784sXtNB5u7e3tWrhwocrKymxHgSGdnZ1auHChSktLbUeBIYFAQAsXLgz+EIvIsGjRIpWUlNiOAYOWLFmi7du3244Bg5YtW6bNmzfbjgGDVq1apQ0bNtiOAYPWrFmjdevWXfTX19TUaOPGjcFjSsi+b/369froo49sxzCuT4+EPMHlkh6cmKYHJ6apuqFTC9Y3atGGRi3bckzVp0zNPWHXQZ/u/Mftevep0bp/fOppnz90pFO3fXuryms7TvtcSmKUbhmTqOuvSNDYIbEaNShWowvigmXXX/9830V9H01tFz7Ksq0joG7/yXngyQlRl7SI7I8S4zw6dOTkcWt7QOm92xy71/766b0h65GeMCDKpetGxOum0Ym6cmicRg+K1ZjBccpKOT61vWhTo/7zD5c2CwAAAAAAZ1NYWCjnz+vHDR06VGPHjrWcCDizflFC9pSbFq2v3pupr96bKUnaW+nTim1Nmr+uUXPXHlVr+8lRcl3djr78s70qff3606ZC/+0zpSEFpNslfeXeLH37L3J0zfD4sBR9h45c+HqOp65/eOr07EiUespj0NDUpcFZMZfs9t9Z1nBaAfmJkQn64ZfyNenGlI+17qgtUVFRGjZsmJKTL24UL/ofj8fDNY8wLpdLw4YNU1pamu0oMGjo0KEssxFhuOaRp6CggL/bI8ygQYMUG2tnE1DYkZeXJ9fHKCF6rgfJKMj+ITc3Vx0dpw+Ku9z1+0ZrZH6sRubH6rHJWWrx+fXjVyv0v29VBT9/tLlbbxTV61vTcoJ/VnaoQ++vbAi5nTeeHKW//FR4F27dvK/1gr9mw+7QnaDHDuYfo/yMaK3defJ4+4G2C9ohu8XnV13jyUI4JSEqpNz95TtVIed/dkKa3vy3Ub1eY7QviouL08MPP2w7BgyKjo7mmkcYt9vNNY9ADz30kO0IMGzatGm2I8CwqVOn2o4AwyZNmmQ7Agy76667LvprfT6fioqKgseUkP3DHXfcYTuCFX12SFdzm19Hm7uD/3V1n39r6oRYj37++BA9ek9myJ+v3Rla5K3b1Ryy0/Xd1ydfUAHpD1zcNtkrtjX16vvoaf76oyHHN49JvKj7vpzcMjb0Mfhox+mbFp3Lb96v0fAvbAz+93pRffBzASe0+PW4XXruieG9LiAv8qkBAAAAAMAFW7Jkidra2iRJXq9XEydOtJwIOLs+W0L+5b/vVuq0tcH/Xlt0+vp8ZzN1fErI8akbzpy6DuT4Ky+s2Dt4hnUke+PwsS7NXXv0/Cf+2dHmbr29NHTE5ievvcSLH/ZDt43zhhy/s+ywOi+g3F24oTHkeNSgk6NLaxo6Q25rWO7A4HqPvXGxzw0AAAAAAC5Uz6nYkyZNUnR0tMU0wLn12RIyLyP0hbOmpPej3Vp9gZDj9KTQEqmzK7Sw6rnxy/lsK23TivPsun0uP3y5vNcjKZ+ccTBkjcsxg2M1fiwjIW8Zk6iR+SeLw4ambv3mvepefe3uCp+WbzkWPI6NcYc8ph1doc8d/wU8N7r9jl6YfajX5wMAAAAAcLEcx9GcOXOCxyzfgL6uz5aQN48OLdv+uOSwqg6feSfsnrr9jqYXhhZB146IDznOSw8tOJcUH1NvlNa064EnSy54SnVP20rb9E8vlJ33vNcW1emFWTUhf/bNB3LOcnZkcbmkbz6QHfJnT/2+Qpv2tpzlK47zBxz93a9LQ6ZM33tjihJiPcHj7NRoedwnp14fONSu0pr282bq6nb02P/sO20NTwAAAAAAwqG4uFiVlZWSjm9MOWXKFMuJgHPrsyXkfbekaEDUyTKoxefXpH/ecc6iqaahUw/9eFfIqMmYAW49fEfobnKfui50SvOakuaQzWxOFXCOl4LXf2OLyg6dPt22oan7DF91dr98p1pfe3qfmtr8p32uoyugH844qMf+Z19IWXb1sHg9fn/2aedHqm8+kK3RBSdHQza3+TXpn0v03oqGM55/rNWvR/5zjxZvPDkV2+WSfvCF/JDz4mLcIWtOOo702P/sU4vv9Gt1wrbSNk18YtsZlww43HThO6IDAAAAAHA+Padi33LLLUpPD+9mu8DH1Wd3x85Ji9Y3pmbr/z44ORpwR1mbrv/GFt0yNlETr/YqPyNGMQNcqmno0sY9LVq0sVHtnaHTaZ/8Ur6yU0NHPg7OitH941M1e/WR4J9974UyFa45qgcnpml47kAlJ0Sp9kin1u1q0XsrGrS7whc8Ny89OmRU5pO/K1dqYpTyM2KUnhQVMpLuhNgYt/7i9jS98edNUGbMq9VbSw/rgVtTNbogVm6XS/uqfZq56oiONnef9rUv/dOIkFI20g2MduuVfxmpO57YHpxCffhYlx780S6NGxqn+25J1aCMaHX7HW070Kb3VjSc9rh+Y2q2bhh1+q7af/uZbK3afnLK/bItxzT2q8V6bHKmxg2JV35GtBpburWnsl1z1x7Rog2NwcL41OfGWx8e1n03p2rC1V4NjHYrKd5z6t0BAAAAAHDBCgsLgx+zKzb6gz5bQkrST78+WGt3Nmv9KVNc15Q092qNyK/cm6nvP5J/xs8983dDtXZns+oaT45UW7r5mJZuPvvU7CiPS08/PkRXDY3Tp7+3I/jn63a16IbHt0iS6t67SRnJp29k4pL00vdGaG+lL/j9tPj8wVLybGJj3Jr5n2N04xnKskh385hEzfzPMfrsv+1UW8fJ8nn7gTZtP9B2zq+ddGOyfv3tYWf83Oc/laG3ljbog5UnR1VW1HXoqVcrznmbU25O0R9+cIVGf3lT8HnV1hHQw0/tkiT96m+H6jsP5vbqewMAAAAA4Gxqamq0cePG4DHrQaI/6LPTsSUpIdajhU9fqS/dnXlBX5eSGKXnnhiu3/3TyDOOSpSkoTkDtfjn4zRmcOwZP3+qm8ckasUzV+mJB3N165Xe09aV7I3YGLc+/OU4ffXe3n0/nxiZoJW/vkp3X598wfcVKSbdmKyVv75aN4/p3YY90VEuff+RfBX+ZOxZR5a6XNIb/3qFvjypd9cpzRulX397mGb/ZKxSEqP0uU8yBB4AAAAAED6FhYVynONT8oYOHaorr7zSciLg/FzOiWdtH7e1tFUvz6vT8q1N2nag9bTNYXLSonXjqAR95vY0PXxHWshmI+fS0RXQawvr9XpRvdbubJavx4i6NG+U7r0pRQ/fka4Hbk2Vq0dnta20Td/+TamW9dhpeVjOQG168drglNv2zkDw9lwuKTnh5MDTFduaNGNereasOar6HqMxvXEe3fWJZH3+znR9dkKaojznn4Ld0RVQW/vJ3HED3YoZcHq/HHCkYy0npyQPiHL1+nGSpKY2f8hu0ckJUSGPybn0fCyk4wXzmUrAU8+Lj/UouhfT0B1HmrmqQe8sb9DCDY0hj6nH7dK1I+J1zw3J+uYD2RqUGdO70JJWbW/SczNqCeIIAAAgAElEQVQPaUnxMR06cnKadXSUS+Ov9Oozt6fqK5MyQ66tryOgf3mxTL+dUxtcHiA5IUrTvzvcWkHZ3NysV199VRMmTNA111xjJQPMam9v10svvaRbbrlFN9xwg+04MMDv9+v555/X9ddfr/Hjx9uOA0Oef/55jR07VnfccYftKDDkpZde0pAhQ/TpT3/adhQY8uqrryozM1OTJ0+2HQWGvPHGG0pISNADDzxgOwoMefvtt+V2u/Xggw/2+mumTZumWbNmSZL+/u//Xs8880y44iEMPvjgA7W3t+vzn/+87ShG9enp2D1dPSxev/zboZKO74Dd1OZXY0u3oqPcSkn0KH7gxa21FzPArb++L0t/fV+W/AFHDU3damsPKDNlgOJizj5Q9KphcVr6y3Fq7wyopqFTqd4Bp633NzDarYHRZ76NCVd5NeEqr6TjpVXt0S6leaOUGHfh30fMgDOXjqdyu46PEr1Y3ovIdsK5HouLOe9ULpf0mdvT9Jnbj29C1N55/DEdGO0+6zqdvXHbOK9uG3f8OjW1+dVwrEsJsZ4zTrk/ITbGrV9/e5h+9XfDVNPQKbfr+K7bvS1sw8FxHLW2tqqz8/w7zOPywDWPTK2treroOH0DNVy+WlpauOYRhmseeVpbW9Xe3m47Bgxqa2uTx8Na8pHE5/PJ7e79+2Cfz6eioqLgMetB9j8+n08+n+/8J15m+k0J2VOUx6XUxCilfoxC7Uw8bpcyz1EuncnAaLeG5gz8WPcbG+PWkOzej87D+Q2Mdmtw1qV9TL1xngsqYt0uXdS0fQAAAAAAzmbJkiVqbW2VJHm9Xk2cONFyIqB3+s10bAAXz+/369ChQ0pKSlJCApscRYJAIKCamhp5vV4lJvZuzVT0f1VVVUpMTJTX67UdBYZUV1crPj5eSUlJtqPAkJqaGsXGxio5mTXDI0Vtba0GDBig1NRU21FgSF1dnTwej9LS0mxHgSH19cc3rM3IyOjV+Y8//rimT58uSXr44Yf11ltvhS0bwuPw4cNyHKfX1/xyQQkJAAAAAADQDziOo4KCAlVWVko6vm7so48+ajkV0Dt9endsAAAAAAAAHFdcXBwsIN1ut+69917LiYDeo4QEAAAAAADoBwoLC4Mfjx8/XpmZmRbTABeGEhIAAAAAAKAfmD17dvDjqVOnWkwCXDjWhAQAAAAAAOjjampqlJeXpxM1zvbt23XllVdaTgX0HiMhAQAAAAAA+rjCwsJgATl48GAKSPQ7lJAAAAAAAAB9XM/1IKdNm2YxCXBxKCEBAAAAAAD6MJ/Pp6KiouDx/fffbzENcHEoIYEI0NnZqc2bN6u+vt52FBji9/u1efNm1dbW2o4CQxzH0ebNm1VTU2M7CgzasmWLKisrbceAQdu3b9fBgwdtx4BBJSUlKisrsx0DBu3atUv79++3HQMG7d27V/v27TvnOUuWLFFra6skKSEhQRMmTDARDWGyf/9+7d6923YM4yghgQjQ3t6uBQsW8ANsBOns7NSCBQv4ATaCBAIBLViwICJ/mIlkCxcuVElJie0YMGjx4sXatm2b7RgwaOnSpSouLrYdAwatXLlSGzZssB0DBq1evVpr1qw55zk9d8W+9957FRMTE+5YCKN169Zp1apVtmMYF2U7AIDwW7hwoZ577jm98sorio+Ptx3HGMdxVF5ers7OTuXn5ysuLs52JGOOHTumgwcPKiEhQUOHDrUdxxjHcVRRUSGfz6f8/PyIer63tLTowIEDiouL07Bhw+RyuWxHMqaiokJtbW3Kzc1VYmKi7TjGtLW1qbS0VDExMRoxYkREXfOqqiq1tLQoJydHXq/XdhxjfD6f9u/fr+joaI0YMUJud+SMJ6ipqdGxY8eUnZ2t5ORk23GM6ejo0L59+xQVFaURI0bI4/HYjmRMbW2tjh49qqysLKWkpNiOY0xnZ6f27dsnt9utn/70p4qKipy37HV1dTpy5IgyMjKUlpZmO44xXV1dwVGQTz/9tAYMGHDG83r+onnq1KlGsgGXmss5sbUSgMvWqFGjtGfPHtsxAAAAAAAfg8fjUU1NjTIyMmxHwcewdOlSdXR0aNKkSbajGBU5v1YBIthNN91ECQkAAAAA/dzNN99MAXkZ+OQnP2k7ghWMhAQiQFdXl9asWaOOjg7bUYw7Ma1j9OjRtqMYFQgEVFJSory8vIiawiRJhw8fVl1dncaMGRNR01Mdx1FJSYmys7MjagqTJB05ckQ1NTUaO3ZsxF3zXbt2KT09PeLejJxYcmLs2LERNT1VOj4dLzk5WVlZWbajGHViyYkxY8ZE1PRU6fiGFfHx8crNzbUdxajW1lbt379fY8aMOev01MtVaWmpBgwYoEGDBtmOYpTP59PevXs1atSoiFvvsKysTC6XS4MHDz7vufn5+RH33gaXD0pIAAAAAAAAAGEVOatZAwAAAAAAALCCEhIAAAAAAABAWFFCAgAAAAAAAAgrSkgAAAAAAAAAYUUJCQAAAAAAACCsKCEBAAAAAAAAhBUlJBABmpub9dxzz2nLli22o8CQjo4OPffcc9qwYYPtKDDE7/frueee0+rVq21HgUEvvPCCli9fbjsGDPrd736noqIi2zFg0O9//3vNnz/fdgwY9Mc//lGzZ8+2HQMGvfPOO3rvvfdsx4BBM2fO1Jtvvmk7hnFRtgMACD/HcdTc3KzOzk7bUWBIIBDgmkeg5uZmdXR02I4Bg5qbm9Xe3m47BgzimkeelpYWJSYm2o4Bg1pbW+V2M14okrS1tXHNI0xbW5t8Pp/tGMbxLAcAAAAAAAAQVi7HcRzbIQCEl9/vV01NjZKTk5WQkGA7DgwIBAKqrq6W1+uV1+u1HQeGVFZWKjExUUlJSbajwJCqqirFx8crOTnZdhQYUl1drdjYWKWkpNiOAkNqamoUHR2ttLQ021FgSG1trTwej9LT021HgSF1dXVyuVzKyMiwHQWG1NfXKxAIKCsry3YUoyghAQAAAAAAAIQV07EBAAAAAAAAhBUlJAAAAAAAAICwooQEAAAAAAAAEFaUkAAAAAAAAADCihISAAAAAAAAQFhRQgIAAAAAAAAIK0pIAAAAAAAAAGFFCQlEgK6uLm3dulWHDx+2HQWG+P1+bd26VXV1dbajwBDHcbR161YdOnTIdhQYtG3bNlVVVdmOAYNKSkpUWVlpOwYM2rVrl8rLy23HgEF79uzRgQMHbMeAQfv27dP+/fttx4BBpaWl2rt3r+0YxlFCAhHA5/Np3rx5/DATQTo7OzVv3jzt27fPdhQYEggENG/ePO3atct2FBg0f/587dixw3YMGLRw4UJt2bLFdgwYtGTJEm3atMl2DBi0fPlyrVu3znYMGPTRRx9p9erVtmPAoLVr12rFihW2YxhHCQkAAAAAAAAgrKJsBwAQfh6PRwUFBfJ6vbajwBC3262CggIlJSXZjgJDXC6XCgoKlJKSYjsKDCooKFBaWprtGDBo0KBBXPMIk5+fr9TUVNsxYFBubq7i4uJsx4BB2dnZcrsZIxZJsrKy1NnZaTuGcS7HcRzbIQAAAAAAAABcvqjaAQAAAAAAAIQVJSQAAAAAAACAsKKEBAAAAAAAABBWlJAAAAAAAAAAwooSEgAAAAAAAEBYUUICAAAAAAAACCtKSAAAAAAAAABhRQkJAAAAAAAAIKwoIYEI0NzcrOeff15bt261HQWGdHR06Pnnn9fGjRttR4Ehfr9fzz//vNasWWM7CgyaPn26VqxYYTsGDJoxY4aWLFliOwYMeu2117RgwQLbMWDQn/70JxUWFtqOAYPeffddvf/++7ZjwKDZs2frrbfesh3DuCjbAQCEn+M4ampqUkdHh+0oMCQQCHDNI1BTU5Pa29ttx4BBTU1N8vl8tmPAIK555GlublZCQoLtGDCopaVFLpfLdgwY1NraKrebMWKRpKWlJSL/PedZDgAAAAAAACCsXI7jOLZDAAgvv9+vqqoqpaSkKDEx0XYcGBAIBFRZWank5GR5vV7bcWDIwYMH5fV6lZycbDsKDKmoqFBCQoJSUlJsR4EhlZWVio2NVVpamu0oMKS6ulrR0dFKT0+3HQWG1NTUKCoqShkZGbajwJDa2lpJUlZWluUkMKWurk6BQEDZ2dm2oxhFCQkAAAAAAAAgrJiODQAAAAAAACCsKCEBAAAAAAAAhBUlJAAAAAAAAICwooQEAAAAAAAAEFaUkAAAAAAAAADCihISAAAAAAAAQFhRQgIAAAAAAAAIK0pIIAJ0dXVp+/btamhosB0Fhvj9fm3fvl319fW2o8AQx3G0fft21dbW2o4Cg3bs2KHq6mrbMWDQzp07VVlZaTsGDNq9e7cOHjxoOwYM2rt3r8rKymzHgEH79+9XaWmp7Rgw6MCBA9q3b5/tGMZRQgIRwOfzac6cOfzDFkE6Ozs1Z84c7d2713YUGBIIBDRnzhzt3LnTdhQYNHfuXG3fvt12DBi0YMECbdmyxXYMGFRUVKSNGzfajgGDli1bprVr19qOAYNWrVqljz76yHYMGLRmzRotX77cdgzjKCEBAAAAAAAAhFWU7QAAws/j8WjQoEFKTEy0HQWGuN1uDRo0SF6v13YUGOJyuTRo0CAlJyfbjgKDBg0apNTUVNsxYFB+fr7S0tJsx4BBubm5XPMIk5OTo7i4ONsxYFBWVpZcLpftGDAoMzNTHR0dtmMY53Icx7EdAgAAAAAAAMDli+nYAAAAAAAAAMKKEhIAAAAAAABAWFFCAgAAAAAAAAgrSkgAAAAAAAAAYUUJCQAAAAAAACCsKCEBAAAAAAAAhBUlJAAAAAAAAICwooQEAAAAAAAAEFaUkEAEaGlp0fTp07Vt2zbbUWBIR0eHpk+frk2bNtmOAkP8fr+mT5+utWvX2o4Cg377299q5cqVtmPAoFdeeUVLly61HQMGvf7661q4cKHtGDDorbfe0pw5c2zHgEHvv/++Zs6caTsGDJo9e7beeecd2zGMi7IdAED4BQIBNTY2qr293XYUGMI1j0yNjY3y+Xy2Y8CgxsZGtbW12Y4BgxobG9Xa2mo7Bgw6duyY4uLibMeAQU1NTXIcx3YMGNTc3Cy3mzFikaSlpSUif27nWQ4AAAAAAAAgrFwOv2IBLnvd3d2qqqpSSkqKvF6v7TgwIBAIqKKiQsnJyUpKSrIdB4aUl5crKSlJycnJtqPAkIMHDyohIUGpqam2o8CQiooKxcbGKj093XYUGFJZWamYmBhlZGTYjgJDqqurFRUVpczMTNtRYMihQ4ckSdnZ2ZaTwJTa2loFAgHl5OTYjmIUJSQAAAAAAACAsGI6NgAAAAAAAICwooQEAAAAAAAAEFaUkAAAAAAAAADCihISAAAAAAAAQFhRQgIAAAAAAAAIK0pIAAAAAAAAAGFFCQkAAAAAAAAgrCghgQjQ1dWlHTt2qKGhwXYUGOL3+7Vjxw7V19fbjgJDHMfRjh07VFtbazsKDCopKVFNTY3tGDBo165dqqqqsh0DBu3Zs0cVFRW2Y8Cg/fv3q7y83HYMGFRaWqoDBw7YjgGDysrKtH//ftsxjKOEBCKAz+dTYWGhSktLbUeBIZ2dnSosLNTevXttR4EhgUBAhYWF2rlzp+0oMGjOnDnatm2b7RgwaP78+dq8ebPtGDBo8eLF2rBhg+0YMOjDDz/UmjVrbMeAQStXrtSqVatsx4BBq1ev1rJly2zHMI4SEgAAAAAAAEBYRdkOACD8PB6P8vLylJiYaDsKDHG73VzzCONyuZSXl6ekpCTbUWBQXl6eUlJSbMeAQXl5eUpNTbUdAwbl5OQoLS3NdgwYlJWVpbi4ONsxYFBmZqZcLpftGDAoIyNDHR0dtmMY53Icx7EdAgAAAAAAAMDli+nYAAAAAAAAAMKKEhIAAAAAAABAWFFCAgAAAAAAAAgrSkgAAAAAAAAAYUUJCQAAAAAAACCsKCEBAAAAAAAAhBUlJAAAAAAAAICwooQEAAAAAAAAEFaUkEAEaGlp0Ysvvqht27bZjgJDOjo69OKLL6q4uNh2FBgSCAT04osvat26dbajwKDf/e53WrVqle0YMOjVV1/V0qVLbceAQW+88YYWLVpkOwYMevvttzV37lzbMWDQBx98oFmzZtmOAYPmzJmjd99913YM46JsBwAQfoFAQEePHlV7e7vtKDDkxDX3+Xy2o8AQx3F09OhRtbW12Y4Cg44cOaLW1lbbMWDQ0aNHlZ6ebjsGDGpsbFRsbKztGDDo2LFjCgQCtmPAoKamJrndjBGLJE1NTRH5Xo1nOQAAAAAAAICwcjmO49gOASC8uru7VVFRobS0NHm9XttxYEAgEFB5eblSUlKUnJxsOw4MOXDggJKTk5WSkmI7CgwpKytTYmKi0tLSbEeBIeXl5YqLi1NGRobtKDCkoqJCMTExyszMtB0FhlRWVioqKkrZ2dm2o8CQ6upquVwu5eTk2I4CQw4dOiS/36+8vDzbUYyihAQAAAAAAAAQVkzHBgAAAAAAABBWlJAAAAAAAAAAwooSEgAAAAAAAEBYUUICAAAAAAAACCtKSAAAAAAAAABhRQkJAAAAAAAAIKwoIQEAAAAAAACEFSUkEAG6urq0c+dOHTlyxHYUGOL3+7Vz504dPnzYdhQY4jiOdu7cqbq6OttRYNCuXbt06NAh2zFg0J49e1RdXW07Bgzat2+fKisrbceAQaWlpaqoqLAdAwaVlZWprKzMdgwYdPDgQZWWltqOYRwlJBABfD6fZs2apf3799uOAkM6Ozs1a9Ys7dmzx3YUGBIIBDRr1iyVlJTYjgKDZs+era1bt9qOAYPmzp2r4uJi2zFg0MKFC7V+/XrbMWDQkiVL9NFHH9mOAYOWL1+ulStX2o4Bg1atWqWlS5fajmEcJSQAAAAAAACAsIqyHQBA+Hk8HuXm5iohIcF2FBjidruVm5urxMRE21FgiMvlUm5urrxer+0oMCg3N1fJycm2Y8CgnJwcpaSk2I4Bg7KyspSammo7BgzKzMxUXFyc7RgwKCMjQy6Xy3YMGJSenq729nbbMYxzOY7j2A4BAAAAAAAA4PLFdGwAAAAAAAAAYUUJCQAAAAAAACCsKCEBAAAAAAAAhBUlJAAAAAAAAICwooQEAAAAAAAAEFaUkAAAAAAAAADCihISAAAAAAAAQFhRQgIAAAAAAAAIK0pIIAK0tLTopZde0vbt221HgSEdHR166aWXVFxcbDsKDAkEAnrppZe0fv1621Fg0IwZM/TRRx/ZjgGDXnvtNS1btsx2DBj0pz/9SUVFRbZjwKB3331X8+fPtx0DBs2aNUuzZ8+2HQMGzZ07V++9957tGMZF2Q4AIPwCgYAaGhrk8/lsR4EhXPPI4ziOGhoa1NraajsKDGpoaFBLS4vtGDCooaFBqamptmPAoCNHjigmJsZ2DBh09OhRdXd3244BgxobG+V2M0Yskhw7diwi36vxLAcAAAAAAAAQVi7HcRzbIQCEV3d3t8rLy5Wenq6kpCTbcWBAIBDQgQMHlJqaqpSUFNtxYIDjOCotLVVKSgqjpCJIaWmpvF6v0tPTbUeBIWVlZYqPj1dGRobtKDDk4MGDiomJUVZWlu0oMKSyslIej0c5OTm2o8CQqqoqSVJeXp7lJDClpqZGfr9f+fn5tqMYRQkJAAAAAAAAIKyYjg0AAAAAAAAgrCghAQAAAAAAAIQVJSQAAAAAAACAsKKEBAAAAAAAABBWlJAAAAAAAAAAwooSEgAAAAAAAEBYUUICAAAAAAAACCtKSCACdHV1adeuXTp69KjtKDDE7/dr165damhosB0FhjiOo127dqm+vt52FBi0e/du1dbW2o4Bg/bu3auamhrbMWDQ/v37VVVVZTsGDDpw4IAqKyttx4BB5eXlOnjwoO0YMKiiokJlZWW2YxhHCQlEAJ/Pp5kzZ2rfvn22o8CQzs5OzZw5U7t377YdBYYEAgHNnDlTO3bssB0FBs2aNUtbtmyxHQMGzZkzR5s2bbIdAwYtWLBA69atsx0DBhUVFWnVqlW2Y8CgZcuWafny5bZjwKCVK1dqyZIltmMYF2U7AACg/3v33Xf1wgsv2I4hx3G0f/9+tba2avjw4UpISLAdyZimpibt2LFDXq9XV1555XnP//a3v60HHnjAQDJcLj788EP95Cc/sR1DklRWVqbGxkYNGTJEycnJtuMY4/P5tGXLFsXGxuqqq66S233u8QRf/OIX9eUvf9lQOlwOtmzZou9973u2Y0iSqqqqVFdXp0GDBik9Pd12HGM6Ozu1efNmeTweTZ8+XR6P55znT548Wd/97ncNpcPloKKiQo899pjtGJKk2tpaVVdXKycnR9nZ2bbjGHXo0CHFx8dr6tSpyszMtB3HGEpIIAJ4PB5lZ2crPj7edhQY4na7lZ2dbayEe+WVV7R48WIj99VbkTotubW1tVdTNb1eLyXkZSA7O1tJSUlG7uuNN97oc6/zw4cP245gRUtLS69GT/h8PkrIy0BmZqZSUlKM3Nc777zT517nkby0zIcffnjec0pLSykhLwNpaWnn/cXSpTJ79uw++Trfvn277RhW/PKXv9RPf/pT2zGMcTmO49gOAQDov9ra2pSeni6fz2c7Ci5AYmKi6uvrFRMTYzsK+gHHcZSXl8dahP2Mx+NRTU2NMjIybEdBP3Hddddp8+bNtmPgAm3fvr1XsyAASZoyZYrmzZtnOwb+7OWXX9ZXvvIV2zGMYSQkAOBjKSoqChaQSUlJ+u1vf2s1T3V1tWpra3X11VefdwrT5cTv92vLli3KyclRTk7OGc9xHEePPfaYWltb1dzcrGXLlumee+4xnBT90YYNG4IFZFRUlF599VUNGDDAWp76+nqVl5frmmuusZrDNMdxtHXrVqWkpKigoOCs5/3DP/yDqqqq5Pf7NW/ePD366KMGU6K/qqioCFljdvr06cZGYJ7JsWPHtGfPHo0bN06xsbHWcthQUlKi6OhojRgx4qznPPXUU8F1oAsLCykh0Sutra0hI2x/9rOfadiwYVbz7NixQ2PGjFFiYqK1HLZkZWVp4sSJtmMYRQkJAPhYZs2aFfx48uTJevjhhy2miWyf//znz3vOH//4R33wwQeSjk/HoYREb8yePTv48W233aZHHnnEYprI9rnPfe685yxZsiS4Tu/s2bMpIdErs2fP1olJcqNGjdLf/M3fWE6EcykpKQmWkLNnz9a//Mu/WE6E/mDhwoVqb2+XJKWkpOgf//EfFRVFLQRz2B0bAHDRHMcJmc4xdepUi2nQGz2vUc8CGTiXniUkr/O+r+c1mj9/vjo6OiymQX/B67x/uf/++4Mfr1mzJmLXyMWF6fk6nzx5MgUkjKOEBABctA0bNqiqqkrS8bXH7r33XsuJcD73339/cOHzgwcPatu2bZYToa+rqqoKmaLZ840v+qY777wzuBldS0uLli9fbjkR+rrW1lYtXbo0eMzrvO+77rrrlJ+fL+n4kixz5861nAh9XSAQCBk8wOscNlBCAgAuWmFhYfDj2267TWlpaRbToDcyMzN1ww03BI97/kYcOJNZs2YFp2gOHz5co0aNspwI5xMbG6u77roreNzz72rgTE6donnbbbdZToTzcblcuu+++4LHvM5xPuvWrdOhQ4ckHV/fedKkSZYTIRJRQgIALhpTt/qnnr/55k0Lzqfnc2TatGkWk+BC9Hydz5w502IS9Ac9X+dM0ew/ev7stWDBAnV2dlpMg76u5+t8woQJVjeeQuSihAQAXJTq6mpt3rw5eMyUjv6j55uWtWvXqra21mIa9GVtbW0hUzT5ZUP/cd9998nlckmSysvLgxtYAKcKBAIhU3l5nfcfd911l+Li4iRJTU1NLL2Ac2LwAPoCSkgAwEU5dYrm6NGjLSdCb1177bUaPHiwpNPXBwJ6WrRokdra2iRJSUlJuv322y0nQm/l5OTo+uuvDx6z9ALOZv369SFTNFnfuf9g6QX01qnrgFNCwhZKSCACtLS0aMaMGYyCiCAdHR2aMWNGyEjFS63nD7oPPPBA2O4HvRMIBDRjxgxt2LChV+dPmTIl+DFvWvqvV155RatXrw7b7Z86RXPAgAFhuy/0zuuvv97r0U4svXB5ePPNN7VkyZKw3X7P58btt9/OFM0+4L333tOCBQt6dW7P1zm/bOi/Zs+eHda/p2fPnh0cPDBq1ChdccUVYbsv9M68efP0/vvv245hHCUkEAECgYDq6+uDo1lw+Qv3Nff5fPrwww+Dx0zFts9xHNXX16ulpaVX5/e8ZgsWLFBHR0e4oiGM6uvr1dzcHJbbdhyHXTT7oAu55j2v2erVq1VXVxeuWAijhoYGHTt2LGy337O44nXeNxw5ckSNjY29Onfq1KnBpRdKS0tVUlISzmgIk6NHj/b6ml+MngUnr/O+obGxUUePHrUdwzhKSADABWOKZv935513KjExUdLx0dLLli2znAh9zYYNG1RVVSVJ8ng87KLZD1177bXKz8+XdPyXU/Pnz7ecCH1NRUWFtm7dGjxmimb/w9ILOJ/W1taQ9Z0pIWETJWQf5DjSkuJjWryxUR9uPqY/j5o+43kfbj5+3pLis58HxMXF6cEHH2TYfQSJiYnRgw8+qDFjxoTl9nv+gHvvvfcyRbMPcLvdevDBB3XVVVf16vyYmJiQdaR409I/ffazn9V1110Xltvu+Zy4/fbblZaWFpb7wYWZNm2abrzxxl6d63K5QkolXuf905QpUzR+/Piw3DZTNPume+65RxMmTOj1+bzO+78777xTn/zkJ8Ny2wsXLlR7e7skKSUlRbfeemtY7gcXZuLEibr77rttxzCOErIPcrmkD1Y26O5/2qE7v7tdP3714BnPe+r3B3Xnd7fr7n/aofdXNOjPo/Bh0G/er9F//7FSL8/v29OboqKiNGLECCUlJdmOAkPcbrdGjBgRlnWdmKLZN7lcLo0YMeKCiqKeb1pmzQohWwMAACAASURBVJoVjlgIs+HDhysjIyMst80umn3T0KFDlZmZ2evze167+fPns/RCPzRkyBBlZ2eH5bZ5nfdNBQUFys3N7fX5PX8WW7NmjQ4fPhyOWAij/Pz84Mj1S63n63zy5MmKiooKy/3gwuTl5WnQoEG2YxhHCdlH/fTrgzUsZ6Ak6T9eq9AbRfUhn39vRYP+/fcVkqSCzBj95K8HG88Y6fZVtevvf1Oq//fbcv36vWrbcQBjNm7cGDJFk100+6/7779fbvfxHwVO3TURka26ulpbtmwJHvPLhv7rzjvvVHx8vKTjSy/0dlMbXP6Yonn5uO6664IFlt/vD/llMSJbIBBg8AD6FErIPip+oEfPfmeYpOPTrv/65/u0fvfxzQY272vVoz/dG5x+/dwTw5UY57EVNWK9tZTfMCIy9fxt6m233cYUzX4sMzNTN9xwQ/CY3XNxwqxZs4JTNIcPH65Ro0ZZToSLFRsbG7L0Aq9znLBo0aLgFM3k5GSmaPZjLpdL9913X/CYKdk4Yf369Tp06JCk47PjWN8ZtlFC9mH33pSiR+85Pt3G1xHQZ57cqU17WzTtyZ1qbfdLkj5/Z7ruu+XST7fEuXV1O3ppbq3tGIAVTN26vLCOFM6k53Nh2rRpFpPgUuj5Op85c6bFJOhLer7Op0yZwvrO/VzP1/mCBQvU2dlpMQ36ip6v8wkTJoRlqSbgQlBC9nG/+NZQZSYf/4GguqFTN31zqw7W/X/27jwuqvPeH/hnGBZBGHYURU0UcIupSxYViIkrq8Y0a7M0ye29t8svbdK0TZPbZml7m5vEtknaJt0TYxLjkqhAkEXFNYKiUUTcF/Z9Z4ABZub3B/VwDuugM+eZYT7v18vXiwfPnPnoeGTme57v8/Ss5ROoc8XbP5gqMp7TevOzMlyp6BAdg0h15eXlOHHihDRmS4fjk7+Gubm5qKriDRZn19bWpmjR5M0Gx5eYmAjNvxcPLyoqwunTpwUnItFMJhPS0tKkMa9zx7ds2TJ4eXkBAJqbm7n0AgHg5AGyPyxC2rlAnSvefaa30Gg09W6Bve67N2OcP+9Yqqmz24zffFyCX35QJDoKkRDyXTSnTZuGGTNmCE5EN2ru3LmYMqVnXeG+6waRc8rKykJbWxsAwNfXF9HR0YIT0Y0KDQ3FggULpDFnPZO8RVOr1WLlypWCE9GN4tIL1Fff9b5ZhCR7wCKkA3joniC89uRk/FfieOnXLx6bhG+vsnxnRLo+HZ0mHL/QivUZ1fjBO5cx+aGj+OW/iqX1OImcjfyD6+rVqwUmIWuKj4+XvuaHFpL/G4iLi2OL5ighn/XM65zk/wZiYmK4vvMoIb/OebOB5JMHpk+fjsjISMGJiADuze4gXn7C+bZuF219RjW+s+4iuo2sOBIBQHt7O7Kzs6Ux76aOHklJSXj//fcB9KwjZTAY4OHhITgViWA2m7mL5iiVlJSEV155BQBw+PBhVFdXIySEN7SdlbxAxet89Li29ILZbMbly5dRWFiIWbNmiY5FgshvNvA6J3vBmZBEg2htN46aAmR3dzfOnz+PxsZG0VFIJUajEefPn0d9fb3VzskWTftmNptx/vx51NbWjvixS5cuhbe3NwCgtbUV+/bts3Y8spELFy6gurraaufLy8tDWVkZgJ4WTe6iaX8uXbp0XWu3zp07F2FhYQB6ll5IT0+3djSykStXrqCiosJq5yspKUF+fr405k1F+1NUVCT9XzwSoaGhmD9/vjTmbEjHUVJSgpKSEqudT6/Xc31nO1daWoqiIudb5o1FSDtmMgPZJ5rw/bcv4dbvfI2ge3PhsuwQxn/zCOb91wk8++cr2J/fPGhrcG1TF7bsq1X86uweeVEt42ij4hxni9uHPP7rC3q8/EExFv4gHxMfOAr3lV/BK+4wpjych+U/KcBbm8pwqXxkm7psO1gnPf/XF/SK39t+sA53P1cAz9jDcF/5FZ5//8qI/4yjXVtbG7Zt24YLFy6IjkIq6ezsxLZt23D27FmrnVN+NzU2Nhbu7u5WOzfdOJPJhG3btqGgoGDEj/Xw8FCsI8UPLY5j+/btis2ibpT8tY+KimKLph1KSUlBXl7eiB+n0WiQkJCgOA85hp07dyInJ8dq55O3aIaHh7NF0w5lZWXh4MGD1/VYLr3gmLKzs616EzgzMxMdHT2fuf39/REVFWW1c5N1HDhwALt37xYdQ3Vsx7ZTJy/p8b0/XMLhwpZ+v1fV0IWqhi6cuKjHO5+XY/FsH7z37DR8Y9pYxXGeHi546o2L0HcYpe+l/nYWEhb6W5yjprELiS8VKmYE5vz51gGPvVzRgZ/+5Sq+OFDX7/e6us0orjaguNqA3ceb8OLfi/CfCePw66cnI8h3+LWmvv1/F9DS1vPn+MG9ofhTxFSYzcAP/3gZf9quvDN87bgb9Z2EcfjWsuABf+/ouVas+hl3liTnYTabFbtosqVj9ElKSsKOHTsAAMnJyfjjH/8oOBGJwNat0S0pKQl//etfAQDp6elcesFJya/zNWvWCExCtpCUlIRXX30VQM/SC7W1tQgKChIbilTXd31nV1eWfsg+cCakHfriQB1u/97JAQuQA/nqdAtu/95JbD+oLP6NHaPFmqgAxfe27h9Zm96WfbWKAuTsm7xw50yffsflFLbgtu+eHLAAORCjyYy/pFTiju/n43LFyGZFXvPMAAVIa/Jwc4G/j+uAv3y8tDZ7XltwcXFBSEgIxo4dO/zBNCpY+zU/duyYokUzNjbWKucl69FoNAgJCYGPT///oy2RlJQEF5eetwXFxcXXNaOS1Ddu3DjodDqrnKu8vFwxq5JFSPsUEhJy3a/50qVLpZ8Lra2tOHDggDWjkY0EBwfDz8/PKufS6/WK9Z15ndunwMBA+PtbPnFEbt68edLSC0ajUbHOL9mvgICA637N+zKZTJw84AACAgKcsuOE5XA782VOAx7+9Tl09WmbvnXqWNwx0xuBOjdUN3TiwKlmXCzrLd51dZvx0K/OIePN2bh7rq/0/UeWBuHT3TXSeMehenR1m+HmqrEoz8Y9yqLl03Hj+h2Tf1mPlT873W8Goo+XFisW+GFyiAeMJjPOl7Yj++smRUv4lYoO3PWjUzj217kY52/57puf7KrBn21YgBxtvL298dRTT4mOQSry8PCw6msub9tbvHixU/7AtHcuLi439JqHhITgtttuw5EjRwD0vOa33HKLteKRjTzxxBNWO1dycrLUojlt2jRMnz7daucm6/nWt7513Y/19PTEsmXLkJycDKDnOl++fLm1opGNPPDAA1Y7V1ZWltSi6efnh8WLF1vt3GQ9a9euve7HajQaxMfH429/+xuAnuv88ccft1Y0shFrrtl49OhRVFZWAgBcXV25vrOdctbXhUVIO1LX3I3/eOuCogA5NXQMPnghAnfdqrzjbTb3zGr8799fQkNLNwCgs9uM7719Cac/mA+Xf9cYV93uj0CdK+qae45paOnG7uONiL1j+LssxdUGHCpolsZurho8tkLZntzVbVa0Sl877sVvheGFR8Lg5aGcbFvX3I2f/uUKPkjvXUS/rLYT/+/dS9jyyoxhMwFAcZUBn+zqLayuWOCHb68KwZ0zfRCoc4WvN/9ZE1kbWzSdQ2JioqII+eKLLwpORGqS32xgi+bolZiYKBUhd+zYgXfeeUdwIlKT/DqPj4+Hm5vlkwDIcSQlJUlFyIyMDHR2dnItbyciv85jYmKsNsOSyBrYjm1H/uefRahq6JLGN433wKE/zulXgAQAjQZ4YEkQUn87C67a3lmNZ4vbkZXXuwOym6sG9y9RrgGydb9lLdObsmsVm94kLgxAiJ/yjcpfUytx4mLvRjEuGuCjn0fitScn9ytAAkCgzhX/+lkEfvn4JGWmfXXIPtFkUa6Uw/VobO3G2DFafPGrGch8azYeXR6M8Ilj4O/jKhVgicg6ysvL8fXXX0tjFiFHL/lrm5ube1078JJjamtr4y6aTiIxMREaTc+bpaKiIpw+zTWunUXfFk1e56PXsmXL4OXlBQBobm7m0gtORl6E5HVO9oZFSDvR0NKNDZnViu+t/3kkxgcMfcdq8Wwf/Ee8skU6LbdeMX5kqbIIueNQvWKdx8Fs3FOjGD8dF9LvmPd3VCrG318TioeXDr/w8a+emtyvuPqX5MpBjh7YX56bhrXRbAklsjX5LppTp07FjBmWzVomxzN37lxMmTIFQM+HVa4j5TyysrLQ1tYGAPD19UV0dLTgRGQroaGhWLBggTTmLtnOQ96iqdVqsXLlSsGJyFauLb1wDa9z51FSUoJTp05JYxYhyd6wCGknPtldgzaDSRqvvM1vwBmQA+m7TuPxC3rFOOZWX0wK6d35sLapa9hZh2eL2/G17DwTAt37tXAfOduKwqI2aezp4YLXnppsUWYA+O13pijG2w/WoUlv2c7WC2f59GsNJyLbkL9xXb16tcAkpIb4+Hjpa3kbPo1ufXfRZIvm6Caf9czr3HnIX+uYmBiu7zzKyYtPLEI6D/nkgenTpyMyMlJwIiIlFiHtxO7jyqLgo8stL7DNjxiLVbf7YfmCnl9Txnkoft9FAzx8T5+W7H1Dt2R/lq2cBfnEyhBF2zcAHDzVrBgnLQpAgI/l6zFG3aJD+MQx0riz24y8c5btCP5UbP9ZmURkfe3t7dxF08nIP7RkZGTAYDAITENqMJvNilmvnDUx+slf48OHD6O6unqIo2m0YIumc5EvvXD58mUUFhYKTkRqkF/nfN9O9ohFSDuRU6gsvi2b72fxY121GqS/MRtZb/X8+vil/nc7HlmqLGpuP1gHo2nwluyNu3t3xdZogKcGaMXOPaPMvHyB5Zmlx/T5cx4912rR4xbPtmyWKBHdmF27drFF08ksW7YM3t7eAIDW1lbs27dPcCKytby8PJSVlQHoadGMjY0VnIhsbd68eQgLCwPQs/RCenq64ERkayUlJcjPz5fGLE6MfhMmTMD8+fOlMWc9j356vZ7rO5PdYxHSDtQ2daGyvlMaB+pcMTHIuruXzYsYi5lTPKVxdWMX9p1sHvDYY+dbcb60XRpH3aJDZJhnv+MulnUoxnPDx4441zf6POZ8SfsgR/bSaIAZk/vnISLrk99NjY2N5c6KTsDDw4PrSDkZ+WscFRXFFk0noNFokJCQII15nY9+8hbN8PBwtmg6CXmxmdf56JeZmYmOjp7P6P7+/oiKihKciKg/FiHtQF1zt2IcFuwxyJE3pu9syM8H2SX7093KVuz/6LPm5DUNrcrcocNsojOQsD7F1sbW4deE9PHU9msNJyLrM5vN3EXTSck/tCQnJwtMQmqQz47h7CjnIX+t09PTufTCKCe/ztesWSMwCamp79ILtbW1QxxNjq7v+s6urpYvlUakFhYh7UBjn2Kej5fWJs/zrWXB0Mhqd18c6N+SbTIDm/f2/nDy8dLi/iUDz4ho6pNbN3bkuXVjlf8x9v27GMhYT9v8/Yxmra2t+OCDD7gWjBMxGAz44IMPcPLkyes+x7Fjx9ii6UBMJhM++OAD5OXl3fC5kpKS4OLS8xahuLgYBQUFN3xOso3169cjJyfnuh9fXl6OEydOSGMWIe3fJ598ggMHDtzweZYuXYqxY3s6UlpbW61yTrKNzZs3K9ZnHim9Xs/1nR3Mtm3bkJmZecPnmT9/vrT0gtFoVKz/S/YlJSUFX3755XU/3mQyKSYP8Dq3f+np6dixY4foGKpjEdIOGE3KsYuNJvlNmzAGd8zwkcaV9Z39Npc5eKoZpTW9reEP3h0E70GKfn1nI3YbB19j0lI3fgYaiMlkQnV1NfR6/fAH06hgjddcfjd18eLFCAoKGuJoEs1sNqO6uhqtrZatrTuUkJAQ3HbbbdKYLVz2q7q6Gs3NAy+vYonk5GSpRXPatGmYPn26taKRjdTU1NzQa36Np6cnl15wELW1tWhsbLzux2dlZUktmr6+vli8eLG1opGN1NXVoaGh4YbPo9FoEB8fL425LqT9amhouKHX/OjRo6isrAQAuLq6YtWqVdaKRjbS0NCAurqhNwwejViEtAN9d5Rubhu+Jfl6PbJ06F2yN/ZpxX56kFZsAPDzVubuOzPSEk165WP8vTllnMhecHc95yZv4WJxYvSSv7arV68WmIREkF/nzjgbw1nIr/P4+Hi4ubkJTENq67v0Qmdn5xBHk6OSX+fR0dHw9/cXmIZocCxC2gH/PkVI+UxEa3vw7iBoZVMtvzhQh2sd2V3dZmyVrRM5Y7InFs/26XsKSYBOmftK5cjXErpSoXxM33OSdXh5eWHt2rWIiIgQHYVU4u7ujrVr12LGjBnX9fjy8nJ8/fXX0pjrQdo/FxcXrF27FrfccotVzif/0JKbm4uqqiqrnJes695778XcuXOv67Ht7e2KXTR5s8ExJCUlKWYq34jExERo/r1WT1FREU6fPm2V85J1xcXFYeHChdf1WLZoOqYVK1YgOjraKudatmwZvLy8AADNzc1cesFO3XPPPViyZMl1P57rOzuemJgYRUeCs2AR0g6E+Lkh2K/3jmRtUxdKqkdW0PvXzir8/O9F0q/apq4BjwsNdMc983ylcXldJ74q6GnpyTrWqHjcU7GDz4IEgFtu9lKMj18YeQvgsfPKx8ya4jXIkXQjXF1dERkZCT8/P9FRSCVarRaRkZEICAi4rsfLd9GcOnUqZs6cac14ZAMajQaRkZFWa5ufO3cupkyZAqDnQ2x6erpVzkvWFRERgZCQkOt6bFZWFtra2gD0tGha6wMv2da0adMwbtzQ79EsFRoaigULFkhjtmrap5tvvhmhoaHX9di8vDypRVOr1WLlypXWjEY2MmXKFEycONEq5/L09MTSpUulMbsb7NOkSZMwadKk63psSUkJ8vPzpTEnDziGsLAw6b22M2ER0g5oNMDCmcoZhzuPWL4ehNkM/PJfxXhjYyne2FiKtz4rxdgxg2/e0q8l+9+zHzfu6W3FdtVq8MRK5W7afd05Q5k5+VC9xZmBnpmXff+ci4aYeUlE6pF/EGWLpvOSryPFDy2jj/w1jYuLY4umk5LPmOF1PvrIX9OYmBgEBg684SSNbrzORzf55IHp06cjMjJScCKiwbEIaSeWL1DOUPtnWhXMFu7SknOmBeV1vS3c0yZ6wtNj8Jf2vphAjHHv/f0vDtShzWDCDlkRMf5Of4wPcB/yeZfO91Xstn2woBkFV9osCw1g6/5a1DT2zrz093HF/IixFj+eiGyjvb0de/bskcZs6XBe8jvpGRkZMBhGvuwG2Sez2azYJZWzJpyX/LXPyclBbW2twDRkbfKCE69z5yVfeuHy5cs4c+aM4ERkTVzHnRwJi5B24vEVwfCSFQ6PnG3Fp302iRnMGxtLFeOkRUMvQuvn7Yr4O3uPKak24Bf/LEKLbEOcoTakuWZq6Bgsn99bPDWbgR/+8bK0xuRQWtqM+PnfihTfeyo2BB5u/CdJJNquXbukFk2dTscWTSe2bNkyeHt7AwBaW1uxb98+wYnIWvLy8lBWVgagp0UzNjZWcCISZd68eQgLCwMAGI1GxfqB5Nj6tmiyOOG8JkyYgPnz50tjzoYcPfR6vWJ9Z95sIHvHio+d8Pdx7Vf4++/fX8Khf6/XOJi/plQqZjBqNMDjK4ZfG+qRpcpW63c+L5e+HufvpihSDuXZ+ycoxtknmvCDty8NWYhsbTdi9S/OoFi27qWHmwt+cO/1rXVDRNYlf2MaGxsLd/ehZ0XT6OXh4aFYMJvrxY0e8tcyKiqKLZpOTKPRICEhQRrzOh895C2a4eHhbNF0cvLiFIuQo0dmZiY6OjoAAP7+/oiKihKciGhoLELakf/9zhRMDvGQxvoOI+75cQH+559F/TaqKak24AfvXMb33r6k+P7D9wRjbvjwLc2Ji/yh8+pdN1JeNHxiZQjcXDUDPKq/+Dv9+xU0/5JSiZgf5mP38UYYZSduN5iwKbsW3/jOCew90aR4zGtPTsLU0DEWPScR2Y7ZbOYumqQg/zeQnJwsMAlZE1u3SE7+byAjIwOdnZ1DHE2OQl5QXrNmjcAkZA/k1/nhw4e59MIoIb/O4+Li4OrqKjAN0fA0ZrOlKw+SGr463YLYF04rWqMBwEUDTAhyxzh/d9Q2daGoqv+6XNMmjEHOn29FkK9lC8s/9eYFfJhe3e/7hR/Mx8wpnhZnrmvuxt3PnRpwPUidlxaTQjxgNJlxtdKAjk5Tv2NWLw7AF7+aAa3L4IVPXWKO9HcSGuiO8i23W5zPFg4XtmDx/+ttb5kbPhZf/22uwERE1nHs2DHcdtttAHpaNCsrK6222zI5purqaoSGhsJk6vn/+9SpU7jlllsEp6IbUV5ejrCwMGmG1JkzZzBjxgzBqUik9vZ2BAUFSUtxZGVlYfny5YJT0Y3Q6/UICgqSZkhlZ2fj7rvvFhuKhDKbzZg8eTJKS3uW8tqwYQMee+wxwanoRphMJkycOBGVlZUAgE8//RSPPPKI4FREQ+NMSDuzeLYPst6ajWA/ZSHRZAZKazpx7HzrgAXIWVO8kP7GbIsLkED/lmwAWDTLZ0QFSAAI1Lli39tzsGhW/52tm9uMOH21DWeL2wcsQH57VQg+f23oAiQRqUc+O2rx4sUsQBJCQkKwYMECacwWLseXnJwsFSCnTZvGAiTB09NTsfQCr3PHl5WVJRUgfX192aJJ0Gg0iI+Pl8a8zh3f0aNHpQKkq6sr13cmh8AipB26c6YPzq6fjx/cGzrsRi06Ly1+/kgYjrx/K8Injqydeek8Xzy6PBgPLAmSfr34aNh1ZQ7wccWBd+fgrz+ehtDA4dePmzO1p2j64QsRcNUOX4BcGx0oZUxaFHBdGa0pUOeq+Htb0Wd3c3vT3d2NixcvorGxUXQUUonJZMLFixdRX18//MEy3EXTcZnNZly8eBF1dXVWP7e8hYsfWuzLpUuXUFNj2UZ218hfw9WrV1s7EtnY5cuXUVVVZfXz8jq3X1evXpUKDZaSv4bx8fFwc7N8ogKJV1xcjPLy8uEPHCH5e7v09HQuvWBHSktLpVmqlpJf59HR0fD3t2xfB7IPZWVlKCkpER1DdWzHtnPNbUak5TQg50wLKuo6Ud/SjUCdKyYGuSNmjg5L5/sp1na0ByYzkFPYgqy8Rlyt6kB1Qxe0LhqEBrojfOIYJCz0x6wpXqJjOpXm5ma8//77WLp0KW6/XWwrO6mjvb0d7777LmJiYrB48WKLHtO3RbOwsBAzZ860ZUyyIqPRiHXr1uHOO++0esvdiRMnMG/ePACAi4sLysvLMW7cuGEeRWp466238I1vfAMrV6606Pi+bbd79uzBPffcY8uIZGVvv/02IiIiFJvJWENFRQUmTpwo/QwoKCjA7NmzrfocdH3ee+89hIaGYu3atRYdzxZNx/ePf/wDPj4+eOihh6x63r4/A3bt2qWYBU3ifPTRR3BxcRlRi/zcuXNx8uRJAMDvfvc7/PjHP7ZVPLKBjRs3or29HU8//bToKKriqqV2TuelxcNLg/DwUsdpiXTR9LSVL57dvz2biOyXfBfNqVOnsgBJkrlz52LKlCkoKiqCyWRCeno6vv3tb4uORdchKytL+vDp6+uL6OhowYnIXoSGhmLBggXIy8sD0LPZAYuQjikvL08qQGq1WotvUtDo5+npiaVLl0qbmaSmprII6aBKSkqQn9+7RwE7mMhRsB2byAm4uLggODgYXl6cgeosruc1l++uxxZNx6PRaBAcHAxvb2+bnJ/rSNmn4OBg+PhYftNP/trFxcWxRdMBjfQ1Hwn5h1he5/YjMDAQvr6+Fh8vf+1iYmIQGBhoi1hkQwEBAfDzs81yT/KlF5KTk23yHDRy/v7+I3rN5ZMHpk+fjsjISFtFIxvx8/NzyhZ6tmMTERHbc2hYaWlpUvunt7c3amtr4eHhITgVjYTZbMakSZNQVlYGAPj444/x6KOPCk5F9uT48ePSRlRarRaVlZXcoMwByVs0161bh+eff15wIrInXH5ndIiLi0N6ejoA4Pnnn8e6desEJyKyDGdCEhERdu3aJRUgdTodYmJiBCcie7Ns2TJplmVrayv27dsnOBGNVF5enlSA1Gq13EWT+pk3bx7Cwno2KTQajUhLSxOciEaqb4umfNYbEQBMmDBBWucZ4KxnR6TX67F3715pzOucHAmLkEREpGjFjo2Nhbv78Lvck3Px8PBQzI6V/5shxyB/zaKiotiiSf1oNBrFhje8zh1PamqqNMMtPDycLZo0IHnRite548nKykJHRweAnjbuqKgowYmILMciJBGRkzObzYrZLrybSoPhOlKOTT7bhdc5DUb+byMjIwOdnZ0C09BIya/zNWvWCExC9kx+nX/11Veora0VmIZGqu/6zq6u3G+YHAeLkERETu748eMoLS0FwBZNGlpSUhJcXHreOhQVFaGgoEBwIrJUeXk5Tpw4IY25iyYNZunSpdKmZs3Nzdi/f7/gRGQpvV6P7OxsaczrnAYzf/58TJw4EUDP0gvX1hYk+2cymRSTB3idk6NhEZKIyMnJ76YuWrSImxDQoEJCQqRNKwCuI+VIkpOTpRbNadOmYcaMGYITkb3y9PRULL3A69xxyFs0fX192aJJg9JoNIiPj5fGvM4dx9GjR1FZWQkAcHV15eQBcjgsQhIROTn5WkBs0aThcB0pxyR/rVavXi0wCTkC+XXO4oTjkF/n8fHxcHNzE5iG7J38Ok9PT+fSCw5Cfp1HR0fD399fYBqikWMRkojIiZWXl+P48ePSmEVIGo7830hOTg6qqqoEpiFLtLe3K1o0eZ3TcBITE6HRaAAAV65cQWFhoeBENByTyYQvv/xSGvM6p+EsX75csfTCwYMHBSciS3B9Z3J0LEISETkx+S6aU6dOxcyZMwUnIns3d+5cTJkyBUDPh16uI2X/srKy0NbWBqCnRTM6OlpwIrJ3oaGhXHrBMFR0OgAAIABJREFUweTl5UktmlqtFitXrhSciOydp6cnli5dKo15ndu/kpIS5OfnS2OuB0mOiEVIIieg1+uxfv16zmRwIgaDAevXr1e8URmI/A0nWzQdm8lkwvr163Hs2DGbP1dcXJz0NT+0iLVhwwbk5uYOeYz8NYqNjWWLpoPbuHGjKjOW5B9ueZ2LtXXrVuzdu3fIY+SvUXR0NAIDA22cimxpx44dyMrKsvnzyK/z5ORkmz8fDe7LL7/Ezp07hzwmJSVFmjwQHh6OyMhINaKRjWRmZjrldce93ImcQFdXF44dO4bW1laUl5eLjqOqpqYmtLS0ICwsTHQUVXV0dCA5ORmVlZWorq4e8BiTyYQ9e/ZI44SEBLXikQ2YzWZUVlZKsxRtKSkpCX/5y18A9LyBysrKklo3RdDr9airq8OkSZOE5hAhNTUV06dPR0tLy6DHcBfN0aWqqgo6nc7mz5OUlIRXX30VQM/SC6mpqRgzZozNn3cwHR0dqKiowE033eR013lKSgpCQkLQ3d096DHbtm2TvuZ17vhqamrg4+Nj8+e5tvSC2WzG5cuX8cknn2DcuHE2f97BdHV1oaSkBJMnT4arq3OVKlJTU+Hi4jLkjcLPPvtM+pqTBxxfXV0d2tvbRcdQnXNd2URO6rnnnsOHH34oOgYJ8MUXX1h0nE6nw1133WXjNDRaLF26FGPHjoVer0dLSwvb/hyEVqtVzGIlGsq8efMwceJElJWVwWg0cu0xO7Bu3TqLjuNrRZaaOHEi5s2bJ60P/thjjwlORO+9955Fx/E6J0fFdmwiJ3Do0CHREcjOrVq1Cu7u7qJj0A1wcXHBvffei9mzZ9v8ucaMGYPly5fb/HnIuhYvXswWzVEgMTFRsV6jrWg0Gs6oc0ARERGYPn266Bh0g5YtW4aoqChVnovFLMfj7+/P9Z1HgejoaMW6rM6CMyGJnMBvf/tbvPzyyzAYDKKjqMpsNqO6uhpdXV0IDg6Gh4eH6EiqaWtrQ319PTw8PBAcHDzs8ffff78KqciWNBqNqh88H3jgAZw6dUq15xtKTU0NDAYDAgICpJ0+nUFHRwdqa2vh5uaGkJCQYVtUH374YZWSkS2Fh4er9lz33XefKuvSWaKurg5tbW3w9/eHt7e36Diq6ezsRE1NDbRaLUJCQuDiMvQckkcffVSlZGRLN998s2rPtWbNGmzYsEG15xtKY2MjWlpa4Ovrq8qyE/aiu7tbWj4pJCRk2Fb02NhYp2tXH40mTZokOoIQGvO1lU2JiIiIiIiIiIiIbIDt2ERERERERERERGRTLEISERERERERERGRTbEISURERERERERERDbFIiQRERERERERERHZFIuQREREREREREREZFMsQhIREREREREREZFNsQhJ5AS6u7tx6dIlNDU1iY5CKjGZTLh06RIaGhpERyGVmM1mXLp0CfX19aKjkIouX76M2tpa0TFIRVevXkVNTY3oGKSi4uJiVFVViY5BKiotLUVFRYXoGKSisrIylJWViY5BKqqoqEBpaanoGKpjEZLICbS1tWHr1q04f/686CikEoPBgK1bt+LMmTOio5BKTCYTtm7divz8fNFRSEWff/45jh8/LjoGqWj79u04cuSI6BikotTUVHz11VeiY5CK0tPTsX//ftExSEW7d+9Gdna26Bikor179yIzM1N0DNWxCElEREREREREREQ25So6ABHZnouLCwIDA+Hp6Sk6CqmEr7nz0Wg0CAwMxNixY0VHIRUFBgbC29tbdAxSEV9z5xMQEACdTic6BqnI39+fP8+djJ+fHzQajegYpCJfX194eHiIjqE6jdlsNosOQURERERERERERKMX27GJiIiIiIiIiIjIpliEJCIiIiIiIiIiIptiEZKIiIiIiIiIiIhsikVIIiIiIiIiIiIisikWIYmIiIiIiIiIiMimWIQkIiIiIiIiIiIim2IRkoiIiIiIiIiIiGyKRUgiIiIiIiIiIiKyKRYhiZyAXq/HRx99hDNnzoiOQioxGAz46KOPkJ+fLzoKqcRkMuGjjz7C8ePHRUchFX388cc4cuSI6Bikok2bNuHQoUOiY5CKPv/8c+zbt090DFJRcnIydu3aJToGqSgtLQ3p6emiY5CKMjMzkZKSIjqG6lxFByAi2zMajaioqEBra6voKKQSk8mEiooKhIeHi45CKjGbzaioqMDkyZNFRyEVVVRUICQkRHQMUlFFRQW8vb1FxyAVVVVVwcWFc0ecSXV1NXx8fETHIBXV1tbyOncydXV1aG9vFx1DdfxXTkRERERERERERDalMZvNZtEhiMi2urq6cPHiRYwbNw4BAQGi45AKjEYjzp8/j+DgYAQFBYmOQyowm804e/YsAgMDOTPOiZw9exZ+fn4YP3686CikkvPnz8Pb2xsTJkwQHYVUcvHiRYwZMwZhYWGio5BKLl++DDc3N0yaNEl0FFLJ1atXAQA33XST0ByknuLiYnR3d2Pq1Kmio6iKRUgiIiIiIiIiIiKyKbZjExERERERERERkU2xCElEREREREREREQ2xSIkERERERERERER2ZSr6ABERETkeP7+97/jhRdeEB0DANDa2gqj0QhPT0+4u7uLjqOarq4utLW1wcXFBd7e3tBoNKIjqUav16O7u9vpXvPu7m7o9XqLX/Mf/vCHePXVV9UJR0QOKScnB/Hx8aJjAADa29thMBgwZswYjBkzRnQc1RiNRuj1egCAt7c3XFycZ67Ytdfcw8MDnp6eouOoLiQkBJ9//jlmz54tOopquDENERERjVh8fDx27twpOgYRDWH27NkoKCgQHYOI7NhLL72E119/XXQMIqf13HPP4fe//73oGKpxnhI7ERERWYVer0d2drboGEQ0jNOnT+PKlSuiYxCRHUtNTRUdgchpubu7281MZLWwHZuIiIhGJCsrCx0dHQAAf39/HDlyRGjrUFdXFxoaGhASEiIsgyi1tbXw9vZ2qrY1oKctua6uDuPGjRMdRXX19fUYM2YMvLy8Bj0mMTERZ86cAQCkpKTghz/8oVrxiMiBXL16FadOnZLGBw4cwIQJE4TlMZlMqKqqQmhoqLAMojQ3NwMAdDqd4CTqMpvNqKioQGhoqFMtK3ONv78//P39RcdQFYuQRE6gu7sbJSUlCAwMdLofbM7KZDKhqKgI/v7+8PPzEx2HVHLlyhX4+fnZ/M1MSkqK9HVcXBzCw8Nt+nw0OBcXF/j4+CAwMFB0FFKJVquFl5cXgoODBz1m9erVUhEyNTWVRUgHV1JSAg8PD6e80eKsSktL4erqivHjx9v0eeQ/z2fNmoXo6GibPp8lnPU9RXl5OTQajVMWYKdNmyY6ghCVlZVoa2tzuiIk27GJnEBbWxs2b96Mc+fOiY5CKjEYDNi8eTMKCwtFRyGVGI1GbN68GSdPnrTp85hMJqSlpUnjpKQkmz4fDW3Lli04duyY6Bikom3btuHIkSNDHiO/Lvfu3YumpiZbxyIbSklJwaFDh0THIBWlp6dj3759Nn8eeRGSP8/F2rVrF3bv3i06BqkoOzsbGRkZomOojkVIIiIistjRo0dRWVkJAHB1dcWqVasEJyKivhYuXIigoCAAPcsVZGVlCU5ERPamtbUV+/fvl8aJiYkC0xCRs2ARksgJuLi4ICAgAJ6enqKjkEr4mjsfjUaDgICAIdeJswb5rIno6GinayGxNwEBARg7dqzoGKSigIAAeHt7D3mMVqtFXFycNJZft+R4/Pz84OPjIzoGqcjPz8/mSyilp6fDYDAA6Pl/ZeHChTZ9PhqaTqfjsllORqfTwdfXV3QM1WnMZrNZdAgiIiJyDHPnzpVavn/3u9/hxz/+seBERDSQLVu24MEHHwQABAYGoqqqClqtVnAqIrIXTz75JNavXw8AePzxx/HRRx8JTkREzoAzIYmIiMgiJSUlyM/Pl8Zs3SKyX6tWrYK7uzsAoK6uDrm5uYITEZG9MJlMSE9Pl8ZcD5KI1MIiJBEREVkkJSUF1xoopk+fjsjISMGJiGgwOp0Od911lzRmSzYRXZOTk4OqqioAgJubG1asWCE4ERE5CxYhiYiIyCLyIgZnQRLZP/l1yiIkEV0j///grrvugp+fn8A0RORMWIQkIiKiYen1euzdu1cas3WLyP7Jr9PTp0/j4sWLAtMQkb1ITU2VvubPcyJSE4uQRERENKzMzEx0dHQAAPz9/REVFSU4ERENZ+rUqZg1a5Y0TktLE5iGiOxBUVERCgoKpHFCQoLANETkbFiEtENmM/Cn7RV4Y2Mp1m0uQ5vBNOBxbQYT1m0uwxsbS/Gn7RXgPudERGQr8lkTcXFxcHV1FZiGiCwln+Ukv46JyDklJydLX8+aNQvh4eEC0xCRs+EnCDuk0QCdXWb8/O9FAIAjZ1qx6eXp0Gh6jzGbgafeuIDNe2sBAL/73s2K3yfrM3SZcPh0C05e0qOqoQsV9Z3QAAjQuWHahDFY8g0dZk724utARKOOyWRSzKDiepBEjiMxMRFvvPEGAGDv3r1oamqCr6+v4FREJArXdyYikTRmM+fP2SOjyYzF/y8fR862AgBefmISXntysvT7v95Qgpc/KAYA3DbdGzl/vhVaF1a/bKGxtRtvflaGv6VWoq65e8hjvzFtLF54ZCIevieYxUgiGjVyc3OxcOFCAICrqyuqq6vh7+8vOBURWcJoNGL8+PGore25cb1lyxbcf//9glMRkQitra0ICgqCwWAAABw4cADR0dGCUxGRM2E7tp3Sumjwj59EwN21p5L16w0l2JTd8+Zx28E6vPJhTwHSzVWDf/wknAVIG/nqdAtmP/U1Xv+0dNgCJACcvKTHt35zHve9chYNLcMfrxa9Xo+PP/4YZ8+eFR2FVGIwGPDxxx/j1KlToqOQSkwmEz7++GN8/fXXVj+3vIUzOjqaBUg78umnn+Lo0aOiY5CKtmzZgsOHD1t8vFarRVxcnDRmS7bj2bZtG/bv3y86BqkoJSUFu3fvtvp5MzIypAJkQECAdIORxEtPT0dGRoboGKSiXbt24csvvxQdQ3UsQtqxOVO98PNvhQH4d/v1mxfwr51VeOL1C9L6j88/MBHfmDZWYMrRK6ewBSt/ehrldZ0D/v74AHf4+wy8osH2g3WI+3kh2gdZz1NtRqMRZWVlaGlpER2FVGIymfiaOxmz2YyysjI0NTVZ/dzy1i3uomlfysrK0NDQIDoGqaisrAz19fUjekzfdSGNRqO1Y5ENVVRUoK6uTnQMUlFVVZU0e9ma5D/PExISuL6zHamurkZNTY3oGKSimpoaVFVViY6hOhYh7dxLj4Zh1hQvAEC7wYT/eOsiWtt73jhGhHni5ScmiYw3ajW3GfHgr85B36F8kx4zR4dtv5qB9vRFqNh6O+p33ImyLbfj7R/cjNBAd8WxuWda8L23L6kZm4jI6kpKSpCfny+NuX4UkeNZtWoV3N173qfU1dUhNzdXcCIiUpvJZEJ6ero05s9zIhKBtz7snIebC/7503BEPZMPk2z1To0G+NuPp8HTg3VkW3hjYylKqg2K7/3y8Ul49cnJ6Nv5PiHQHT/65gQ8ujwY9718FgdONUu/91FmNb6/JhR3zPBWI/agPD09kZSUhHHjxgnNQepxd3dHUlISgoODRUchlbi4uCApKQlBQUFWPW9KSgquLR89ffp0REZGWvX8dGMSEhIQEBAgOgapKC4uDt7eI3tfodPpcNddd2HXrl0Aeq7rxYsX2yIe2cCKFSvg6ekpOgap6J577rH6LMWcnBxp1pWbmxtWrlxp1fPTjYmJiREdgVS2ePFidHfbzxJuauHGNA4i5XA9KmRtwUG+brgvJlBgotGrs9uMcfcdQWNr738Ijy4PxscvDf/Bu7G1G/P+6wSuVvYWMB+8OwibXp5uk6xERLYWFxcnzZx4/vnnsW7dOsGJiOh6vPPOO3j22WcBALNnz0ZBQYHgRESkppdeegmvv/46AGDZsmXSTQkiIjWxCEnUR8bRRsS+cFoau2o1KNtyO0L83Cx6/Iasajzx+gVprPPSonrbHfBw46xVInIser0eQUFB6OjoAADs3bsXS5YsEZyKiK7H5cuXMW3aNGl88eJFxZiIRrc5c+ZINx/efvtt/OhHPxKciIicEasiDsLQZUJRlQHHL7SitKYTXd32Xzs2msyoqOtE/mU9CovaUNPYZbPn6jaacfpqG/Iv6294V+q8c62K8d1zfS0uQALA2uhARcGxuc2I8yUdN5SJiEiErKwsqQDp5+fH9k0iBzZ16lTMmjVLGqelpQlMQ0RqKioqUsx+TkhIEJiGiJwZ14S0Yw0t3fjnzips2VuLo+daIZ+z6qIBFt+iwzfvCsSTq0Lg593/pSyr7cQft1UovvfSo2HQeWlHlOPNz8pQLyvsJS3yR9QtugGP7ew2Y0NmNb44UIc9Xzeho1O5O7SftytW3e6HB5YE4b6YQGg0A56mn1c+LIahq+cvYNEsH6yJ6ln/qqPThP/9uBR/2l4htU//Z8I4/O358BH9GeXOlrQpxlG3+Izo8d6eWkwe54ELpe3S98rrOjFnqtd1ZyIiEkG+i2Z8fDzc3Cy/IUNE9icpKQmFhYUAeq7vZ555RnAiIlJDcnKy9PXMmTMRHn79n5WIiG4Ei5B2akNWNX7y/lVUDzJ70GQGDp5qxsFTzfi/T0vx1ndvwuMrQhTHjPN3wwc7qxTnuOUmLzy2wvKNKi6Vd+Dnf78qFUA1GuA/4kIGPDbjaCOe+eNlRfGtr8bWbmzKrsWm7FrcMcMb7z83DfMjhl9c/Q9by9HS1rNT9Q/uDcWaqADoO4xIeukMsk80WfznsUTfGZuTQzxGfI6+tdVuo/3PXCUikjOZTIqZUtxFk8jxJSYm4o033gDQs7xCU1MTfH19BaciIltLTU2Vvk5KShKYhIicHdux7dCr64vxxOsXBi1A9lXV0IUnXr+A33xcovi+q1aDB+9W7pK6dX/tiLJs3FOjmIEZM0eHiLD+u/Otz6hGwouFQxYg+zpythVLni3Anq9HXkTsNpqx+n+sX4AEgNBAdyyI9JZ+zZwyshmMXd1mXKlUtl+PD+DsISJyLEePHkVlZSUAQKvVchdNolFg0aJFCArqeW/Y1dWFrKwswYmIyNZaW1uxb98+acwiJBGJxJmQduadz8vx2nplMdHHS4sHlgThjhneCNC5oqaxC/vzm7HtQB06ZWtD/vJfxQgL8sCTsb0zFR9ZFow/be9tyc442oiWNiN8LGzJ/myPsmj5dNy4fsd8mdOAp9+8AFOfyX53zuxpm54c4gGjyYzzpe34fH8dzhb3Fipb241IfKkQR9//BmbfZHmx738/Lu1XvPTzdkWAjyvCgkc+c1Hug59F3NDj0482KNbs9PRwwZypY2/onEREapPPmoiJiUFgYKDANERkDVqtFnFxcdiwYQOAnuv8/vvvF5yKiGwpIyMDBoMBABAQEICFCxcKTkREzoxFSDtyvrQdL/6jSPG9lbf5Yf3PIzA+wF3x/e+vCcW5knasffkMzhT1FvV+9rereOieIHh69ExyXTTLBzeN98DVyp4fPB2dJqTm1OORpcO3ZOdf1uP01d71EXVeWty/RPkhtKGlG//1u4uKAmSQrxv+9bNwJC0K6HfOXz81Be8nV+DH712Foatnvch2gwlPv3kBX/3pVmhdhl8k8tj5VmnzGB8vLX6wJhTfXhWC6ZM8LV5j0lZMZuC3n5Qqvpe4MADuroKDERGNkHw9SM6aIBo9kpKSFEVIo9EIrXZk64UTkePou76zqytLAEQkDtux7chP3r+KdkPvRi5Rt+iw4zcz+xUgr5k+yRPpb8xWbDRT09iF7YfqpLFGg34Fx6376mCJjbuVsyAfuicIY8co36T+fks5yus6pbG3pxbpb8wasAB5Lc/314Riw0sRioLhkbOt2LLXslw5hS3oNpoxKcQDh/90K17/zymYMVl8ARIAfv63q8gpbJHGGg3w3AMTBCbq0d3djatXr6K5uVl0FFKJyWTC1atX0dRk/SULyH5dvXoVDQ0NN3yekpIS5OfnS2OuB2m/ioqKUF9fLzoGqaikpAS1tSNbXkdu1apVcHfveW9ZV1eH3Nxca0UjGyktLUVNTY3oGKSi8vJyVFVV3fB5TCYT0tPTpTFvKtqviooKaRkccg5VVVUoLy8XHUN1LELaiaIqA9Jyez84urlq8K+fhWOM+9Av0eQQj35Frl3HlEWHvkXI9CMN0HcYhzyv2Qx8lq18s9O3Fbur24x/7lT+cHzl25OwIHL4jWYeWBKEby1T5vr7l5b/p6t10WDjLyJH1MJtS91GM37xryK8talM8f3HV4Rg0ayR7a5tC21tbdi0aRPOnTsnOgqpxGAwYNOmTTh9+rToKKQSo9GITZs24eTJkzd8rpSUFJj/vSBweHg4IiMjb/icZBubN29GXl6e6Bikos8///yGCoc6nQ4xMTHSWD5LiuxTcnIyDh48KDoGqSgtLQ179+694fPk5uZKxUw3Nzeu72zHsrKysGvXLtExSEV79uxR3CRwFixC2omPMqthlPU0P3h3ECIH2ABmIA/foyzmnbqsV4znTPXCnKm9xbo2g0lR8BzI4cIWqYUbAGZN8cLCPsW0vSebUCGbBRmoc8UP77N81t8rT0xSjLNPNKGyvnOQo5Xi7/RH1C06i5/Lli6WdWDJs6fwvx8r27BvnToWf/7RVEGpiIiun3w9yDVr1ghMQkS2IJ8NJb/eiWh0kd9kuOuuu+Dn5ycwDRERi5B240C+sk22767WQ5k+yRMvPRqGFx7p+bU2pv/mASNtyf5sj3IW5FNxIf2OkbcdA8D9S4JGtPZhRJgnbp/eO2vSbO5py7bEo8uHX9PS1vQdRvzPP4twy9Nf46vTyr+LOVO9kPnWbHh72scaSy4uLvDz88OYMWNERyGV8DV3Tn5+fvD0tOwG1mD0ej2ys7OlMVu37Jufnx+8vOyjK4DU4efnh7Fjb2zDO/l1XVBQgEuXLt1oLLIhX1/fG37NybHodDp4ew/fXTYceRGSS6vYNx8fH/j4iO+gI/V4e3tDp7OPiVVq0piv9VuRMCYzELA6B0363hbpuh13IsDHeosGX600YOqjebj2ao8do0X1tjvg5dG/Dm00mTHxgaOoaugC0NMaXrLpdozzd1Mcl/hSIb7M6Z1RueHFSDy2YmTFweffv4Lfb+ldB+EXj03Cr5+e3O84XWIOWtp6/34uf7IAN4eKKa5ca1X/2V+vorSm/8zN+2IC8cELEYq1OomIHMX27duxdu1aAD3Fjurqari5uQ3zKCJyNLNnz0ZhYSEA4N1338UzzzwjOBERWVNxcTGmTJkijc+fP4+IiAiBiYiIOBPSLlTVdyoKkBOD3K1agASAm8Z7YPHs3iq7vsOI9CMDt2Tv+bpJKkACQMLCgH4FSAD9CnC3Thv5TIw5Nyvv6hZXGwY5speLBrhpvJgC5Omrbbj7uVP41m/O9/vzB/u54aMXI7D11RksQBKRw+q7iyYLkESjk3w2JNeFJBp9kpOTpa9nzpzJAiQR2QUWIe1AY6tyk5hx/gPvhn2jHlmqbPEerCV74+6+G9L0b8UGgMbWbsU4yHfkH1RD+hQ3G1q6Bzmyl6+3q+o7YXd2m/Hi34sw779OYH+f1nl3Vw2ef3Aizq2fj8dXhNjFLt1ERNfDZDIhLS1NGrN1i2j0kl/fe/fuRVNT0xBHE5Gjkd9c4NIqRGQvWIS0Aw19innenrZ5WR68Owiu2t4KWWpOPTo6TYpjDF0mbDtYL41DA90Rd4f/gOdrblMWT32uY/1D37HKxzTphy9CDrdjuLVdruhA1DP5+L+Npejq7l29QKMB7l8SiMIP52Pdd2+Cv5VnrxIRqe3o0aOorKwEAGi1Wu6iSTSKLVq0CEFBPTeou7q6kJWVJTgREVlLa2sr9u3bJ415U5GI7AWLkHZAXhgEAKNpkANvULCfG5Yv6N0RraXNiIyjjYpjduY2KGY4Pr4iuF++a/oWA/sWNC3R2a1cktRtBBvbqOHI2Vbc/t2TyDun3DBnbvhYHHhnDra8MgPTJnDjDyIaHeS75MbExCAwsP9GZ0Q0Omi1WsTFxUlj7pJNNHpkZGTAYOhZ5iogIACLFi0SnIiIqAeLkHbA31s5G7C5bfjZgNerX0v2/lrFeOMe5fjpuHGDnsvfWznzr297tiX6PibAx37WHjtythXLf1KAelmLuJurBi8/MQlH3vsGom5xvp2siGh04y6aRM5Ffp2npaXBaDQOcTQROQr5TYX4+Hi4urJji4jsA4uQdqDvWopXKgww2WjP8rXRgfCU7Yid8lU9DF09Mxhb2oxIPdzbih11iw7TJ3kOeq4gX+UPs3Ml7SPO0/cxgTr7+AFZ19yNB149q9iRO8TPDQffvRWvPTnZ7mZsEhHdqJKSEuTn50tjrh9FNPrFxsbC3b1nLfKamhrk5uYKTkREN8pkMmHnzp3SmD/PiciesAhpB/x9XDFlnIc0bm034vwIC3o//ctVrPjpaelXRV3ngMf5eGmRtChAGjfpjcjK62nJ3nGoHm2G3pbqwTakuWZehLdinHe+dZAjB3f0rPIx8yLGDnKkun7216uKnbrDgt2x7+05uGOG9xCPIiJyXCkpKTCbe+6AhYeHIzIyUnAiIrI1nU6HmJgYacxdsokcX25uLqqqqgAAbm5uXN+ZiOwKi5B2YvFsZWvv9kMD71w9kK5uM/6RVoVdxxqx61gj9p1sGnKn6v4t2T3P9Vl2767Y3p5aPHi38ri+7pypLMht2Wt5ZqBnY5v0Iw2K7y2aJb7F+XxpOz7KrJbG7q4aJP9mFmZMHnxWKBGRo5O3bq1Zs0ZgEiJSk3yWFNeFJHJ88psJMTEx8PPzG+JoIiJ1sQhpJxIWKneg/seXVf02bRlMxlHlZjJzbh47ZLtw3J3+ip2ck7+qR0VdJzLzejeYdFfmAAAgAElEQVSpefDuIHgPs9v18vl+8HDr/SdUWNSGrGONQzxC6e+plYqZlzeN98Dsm70sfrytrM+oRrex9+/+ydhxdjND83rp9Xp88sknOHv2rOgopBKDwYBPPvkEBQUFoqOQSkwmEz755BOcOHFixI/V6/XIzs6WxmzdchwbN25EXl6e6Bikoq1bt+Lw4cNWO5/8ei8oKMCVK1esdm6yju3bt+PAgQOiY5CKUlNTFT+XR/rYa/jz3HFkZGQgMzNTdAxS0e7du5GWliY6hupYhLQT9y8JRIhf7+zFS+Ud+L9PS4d9nNFkxmsflSi+d290wCBH9/Bwc8E37+rd8bShpRvfe/sSumRFz6dih27FBnp225afBwB++MfLinUUB3O5ogO/6pP7v5PGw8UOllr84oByRud9MY6/O6zRaERpaSlaWlpERyGVmEwmlJaWorm5WXQUUonZbEZpaSkaGy2/GXRNVlYWOjo6AAC+vr5YvHixteORjZSWlqK+vn74A2nUsPZrPnXqVMyaNUsaczak/SkvL0dtbe3wB9KoUVlZierq6uEP7KO4uBinTp2SxgkJCdaMRTZUVVV1Xa85Oa7q6mpUVlaKjqE6+9gFhODh5oLnH5yIF/52Vfreq+uLEeLvhu8mjR/wMUaTGc+8exl553rXVRzj7oJvrxq+gPjI0mD848sqabzjUO+b2emTPC3e+fknD07E5r210szBs8XtWP2LM9j66oxBN5k5X9qOuBcK0SwrVgb7ueE/Ewb+c6qpoaW732Y5hwubceLiyNe7lPv+mlD4eA09s5SISBR561Z8fDzc3AZf0oOIRp/ExEQUFhYC6Pn/4JlnnhGciIiuR3JysvT1zJkzERERITANEVF/LELakR8/MAGf76/FkX9v1mI2A9/7wyVsP1iH768JxZ0zfTDO3w21TV04eKoZb20qw1enlTPbfvTNCZgc4jHQ6RXunuuLCYHuKB9gA5unYkOgsXBG4ryIsXjhkYn43497Z23uPdGEW57+Gs/dPwFrogJw03gPdBvNOFvcjk3ZtfjT9gq0y9qwAeC9H02zi52x8y/rYe7TBf/a+pKBDx6Bx1aECC1Cenp6IiEhAaGhocIykLrc3d2RkJCAcePGiY5CKnFxcUFCQgKCg4NH9DiTyaRoBWHrlmOJj4+Hv7//8AfSqLFq1Sr4+PhY9ZxJSUl48803AQD79u1DS0uL1Z+Drt+yZcvg6cm1yZ3JkiVLruuGoPymIn+eO5aoqChoLP0QTqPCwoULYTQO30U62mjM5r4lFxKpqMqAZc8X4FJ5x4gfe/dcX2S8ORvuQ6wHKff8+1fw+y3liu+5ajUo/uw2hAa6W/y8nd1mPPSrc9h+cGQb01zzi8cm4ddPTx7yGF1ijtTmHRrojvItt1/Xcw1nfUY1nnzjgtXPW7r5dkwMsvzvlIhILUeOHMGdd94JANBqtaiqqkJgoOMvQ0FEljMajRg/frzU8rt161Z885vfFJyKiEaitbUVQUFBMBgMAID9+/cjJiZGcCoiIiWuCWlnpozzwP535mDhrJHdfb4vJhA7fjPT4gIkADy8tP9smbg7/EdUgAR6do/e8sp0fG/1yNZ09PRwwbvPTB22AKmm6sYu0RGIiFTVdxdNFiCJnI9Wq0VcXJw0lv+/QESOITMzUypABgQEYNGiRYITERH1J77/lfqZEOiOQ3+8FR+mV+EPW8tRcKVt0GPnR3jjxW+F4Zt3BVrcQn3N7dO98fvv34zOrt7W6BW3+V1XZletBu89Ow1PxY3DKx8UY/fxxkF399Z5aXHfXYF47cnJFrWOA8BrT06Wcg63a/eNuHOmD/7vP6dY/bw6rgdJRHZKXmxITEwUmISIREpMTMSGDRsAAGlpaTAajdBq+f6FyFH0Xd/Z1ZUf9YnI/rAd2wFcKG1HzpkWVNR1ob6lGwE+rggLdkf0HJ3FRTy1tbQZse9kE65WGVDd0AWtiwbjA9wQEeaJ6Dm6Ec3YJCIi2ygpKcGUKVNw7a3AuXPnEBkZKTgVEYnQ3NyM4OBgdHb2rBd+6NAhLF68WHAqIrKEyWTChAkTUFXVs/HoZ599hoceekhwKiKi/nh7xAFEhHkiIsyxFqP28dIicVGA6BhERDSElJQUqQAZHh7OAiSRE9PpdIiJicHu3bsBAKmpqSxCEjmI3NxcqQDp5uaGVatWCU5ERDQwrglJRETkpFJTU6Wv16xZIzAJEdkD+W66XBeSyHHIf57HxMTAz+/6ltgiIrI1FiGJiIickF6vR3Z2tjTmepBEJC9CFhQU4MqVKwLTEJGl5DcN5NcxEZG9YRGSiIjICWVlZaGjowMA4Ovri6ioKMGJiEi0qVOnYubMmdJYPruKiOxTcXExTp06JY0TEhIEpiEiGhqLkEROwGg0ori4GC0tLaKjkEpMJhOKi4vR3NwsOgqpqLi4GI2NjRYd23cXTTc3N1vFIhsqKSlBQ0OD6BikotLSUtTV1dns/GzJtj/l5eWora0VHYNUVFFRgZqaGouOTU5Olr6eMWMGIiIibBWLbKiqqkpa15OcQ3V1NSorK0XHUB2LkEROQK/XY+PGjTh79qzoKKQSg8GAjRs3oqCgQHQUUonRaMTGjRtx4sSJYY81mUxIS0uTxmzdclyfffYZjh49KjoGqWjr1q3Iycmx2fnl/x/s27ePNzDtwPbt23HgwAHRMUhFX375Jfbs2WPRsfIZy/x57rgyMjKQlZUlOgapaPfu3Yr3486CRUgiIiInk5eXJ9151Wq1WLlypeBERGQvFi1ahKCgIABAZ2cnMjMzBSciosG0trZi37590phFSCKydyxCEjkBjUYDnU4HDw8P0VFIJS4uLnzNnZBOp8OYMWOGPU7eYhkTE4PAwEBbxiIb8vX1haenp+gYpCKdTgcvLy+bnV+r1SIuLk4asyVbPJ1Oh7Fjx4qOQSry8fGx6DXPzMyU1ncOCAjAokWLbB2NbMTb25vXuZPx9vaGj4+P6Biq05jNZrPoEERERKSeuXPn4uTJkwCAdevW4fnnnxeciIjsyebNm/HQQw8BAIKDg1FRUQGtVis4FRH19dRTT+HDDz8EADz22GPYsGGD2EBERMPgTEgiIiInUlJSgvz8fGnM1i0i6is2Nhbu7u4AgJqaGuTm5gpORER9mUwm7Ny5UxonJiYKTENEZBkWIYmIiJxIamoqrjVBhIeHIzIyUnAiIrI3Op0OMTEx0li+8QUR2Yfc3FxpN2U3NzesWrVKcCIiouGxCElERORE5Ou7rVmzRmASIrJn8lnSXBeSyP7Ibw7ExMTAz89PYBoiIsu4ig5ARLbX2NiIzZs3o6GhQXQU1RUVFaGhoQFz5sxxqvWsOjs7UVBQgNDQUISGhoqOo6rS0lLU1NRgzpw5cHV1nh9zXV1dKCgoQHBwMMLCwgY9Ljs7W/o6ISFBjWhE5IASExPx7LPPAgAKCgrw2muvWbTxla3U1NSguLgYM2fOtOnGPPbGZDLh9OnT8PLywrRp00THUVV9fT0uX76MmTNnOtWGHWazGYWFhXBzcxuyW+Gzzz6TvubPcyJyFNyYhsgJxMXFIT09XXQMIrIjfn5+qK6uhpubm+goRGSnZs+ejcLCQtExiGgY58+fR0REhOgYRETDYjs2kROorKwUHYGI7ExsbCwLkEQ0JG50QWT/pk+fzgIkETkM5+lTI3Ji//znP/GHP/wBBoNBdBRVmc1mnD17Fnq9HrNmzXKq9q2mpiacO3cOgYGBTte+de7cOTQ3N2PmzJnw9vYWHUc1ra2tOHPmDHx9fS3abObpp59WIRURObKHH34YV65cER0DQM/yKpWVlYiIiEBAQIDoOKoxGAwoKCiAh4cHZs2aBRcX55lDUlpairKyMkybNg1BQUGi46ims7MTp0+fhlarxezZs4ddTmjFihUqJSMiunFsxyYiIiIiIiIiIiKbcp5baUROTK/XY+PGjTh37pzoKKQSg8GAjRs34vTp06KjkEpMJhM2btyIEydOiI5CKtq0aRPy8vJExyAVff7558jJyREdg1S0Y8cOHDx4UHQMUlFaWhr27t0rOgapKDMzE1lZWaJjkIr27NmDnTt3io6hOrZjEzkBo/H/t3fn8VHXB/7H3zNJJpNMLpIAOSAIglxyeMQDlasSqD+ia6u17m7b1e6uu127q7V1+/i5banate1262/buuvafXQLFSlyCgQEohxqBStX5FDkCCHnJCF3wiRz/P5InWQIkAQz30/MvJ6Ph4/HfL/5zjdv+BIM73wOn0pKSjR+/HjTUWARv9+vkpISjRkzxnQUWCQQCKikpCTidkOPdCUlJRo2bJjpGLDQ2bNnje5SDeuVlZXJ7/ebjgELlZeXKzEx0XQMWKiysjKilluAVFVVpba2NtMxLMefcgAAAAAAAABhFbVkyZIlpkMACC+73a6UlBTl5ORE1OYskcxutys5OVk5OTlyuVym48ACNptNSUlJGjNmTERtyBPpPnnmSUlJpqPAIjzzyJOYmKicnBylpKSYjgKLJCQkKCcnh5HuEcTlcmn06NERtfFWpPvkmaelpZmOYik2pgEAAAAAAAAQVkzHBgAAAAAAABBWlJAAAAAAAAAAwooSEgAAAAAAAEBYUUICAAAAAAAACCtKSAAAAAAAAABhRQkJAAAAAAAAIKwoIQEAAAAAAACEFSUkEAF8Pp9KS0vV3NxsOgos4vf7VVpaqsbGRtNRYKHS0lI1NDSYjgELlZaWqr6+3nQMWKi8vFznzp0zHQMWqqioUG1trekYsFBVVZWqq6tNx4CF3G633G636RiwUHV1taqqqkzHsBwlJBABWlpatHz5ch07dsx0FFjE4/Fo+fLlOnz4sOkosIjP59Py5ct14MAB01FgoRUrVui9994zHQMWevXVV/Xuu++ajgELrVu3Trt37zYdAxbauHGj3nzzTdMxYKHXX39d27ZtMx0DFiosLFRBQYHpGJajhAQAAAAAAAAQVtGmAwAIP5vNpsTERDkcDtNRYBG73c4zj0CJiYmKjY01HQMWSkxMlNPpNB0DFuKZR56EhATFxcWZjgELuVwuxcfHm44BC8XHx8tuZ4xYJInUZ24LBAIB0yEAAAAAAAAADF2RV7sCAAAAAAAAsBQlJAAAAAAAAICwooQEAAAAAAAAEFaUkAAAAAAAAADCihISAAAAAAAAQFhRQgIAAAAAAAAIK0pIAAAAAAAAAGFFCQkAAAAAAAAgrCghgQjQ2tqqlStX6vjx46ajwCLt7e1auXKljh49ajoKLOL3+7Vy5UodOnTIdBRYaNWqVdq/f7/pGLDQunXrtHfvXtMxYKGNGzfqnXfeMR0DFtqyZYt27dplOgYstH37dr3xxhumY8BCO3fu1NatW03HsFy06QAAws/r9aq4uFjjxo0zHQUW8fl8Ki4u1ujRo01HgUUCgYCKi4s1cuRI01FgoeLiYiUnJ5uOAQudOXNGDofDks/l8XhUVlZmyefqjc/nk9vtVmZmpukolnvnnXeUkZERcb92n8+nqqoqZWVlmY5iuXfffVeJiYkR932c3+9XZWWlMjMzZbPZTMex1N69e2W32zV27FjTUSwVCARUUVERkc/80KFDstvtWrhwoekolqKEBAAAANDDK6+8oocffth0DPzJ448/bjoCLPbkk0+ajgCLPfXUU6YjwELR0dGaNGmSFixYYDqKZSghgQjgdDq1aNGiiPxJcqRyOBxatGiRMjIyTEeBRex2uxYtWqQRI0aYjgILLVy4UGlpaaZjwEJ33nmnZaNfN23aZMnnAQAgEnm9Xm3ZsiWiSkhbIBAImA4BAAAAYPDweDxKT09Xc3OzJCk5OVl2u7nl5FtaWuT1euV0OhUbG2ssh9W8Xq9aWlpkt9uVkJAQUdMVW1tb1d7eLqfTKafTaTqOZXw+n1paWiRJCQkJRr/urNbW1iaPx8Mzj8BnHhsbq7i4ONNxLDdy5EitWbNGU6ZMMR3FMoyEBAAAABBix44dwQLS5XKpsrIyokoBAAAw8CKnYgcAAADQJxs3bgy+zsvLo4AEAACfGiUkAAAAgBCbN28Ovs7PzzeYBAAADBWsCQkAAAAgqKioSDNmzJDUuelVWVkZG50BAIBPjZGQAAAAAIK6T8W+6aabKCABAMCAoIQEAAAAENS9hFy8eLHBJAAAYChhOjYAAAAASZLb7VZmZqb8fr8k6dChQ5o+fbrhVAAAYChgJCQQAXw+n8rKytTc3Gw6Cizi9/tVVlampqYm01FgobKyMjU2NpqOAQuVl5eroaHBdAxYqKKiQvX19WG7f0FBQbCAzMnJ0bRp08L2udA3VVVVOnfunOkYsJDb7VZtba3pGLBQdXW1qqurTceAhWpqaiLymVNCAhGgpaVFL7/8so4dO2Y6Cizi8Xj08ssv64MPPjAdBRbx+Xx6+eWXtX//ftNRYKHly5dr7969pmPAQitXrtQ777wTtvt3n4qdn58vm80Wts+FvlmzZo127dplOgYstGHDBhUWFpqOAQtt2bJFW7duNR0DFtq+fXvI/3MjBSUkAAAAAHk8npDig/UgAQDAQIo2HQBA+NlsNrlcLjkcDtNRYBGeeWRyuVyKjY01HQMWSkhI4JlHmHA+8x07dgSX8XC5XJo7d25YPg/6x+Vyyel0mo4BC8XHxysuLs50DFgoLi5OdjtjxCJJXFxcRM42YGOaQSgQkB7/z9Mqr2lXVJT0s78bq+z0nkVCWU27vv3iafl8Ula6Q89/Y6wi8M8wAAAABsCjjz6qF154QZJ07733au3atYYTAQCAoYSRkIOQzSbNmZGkL3z/Q0nSx6Xntfs/pik+tusnI20ev/7se8f0/kedG42s+eEkCsgwamz1aesf67TrUKM+Otum2sYOnW/3KzUxRiOHxei2a5OUd2OKrh0bbzoqAADAFSkoKAi+zs/PN5gEAAAMRYyEHMTu/+GHWr2rc1e0++eka+X3J8pm6xwp+Rc/Oq4Vb3bupHTv7Wla+/Qkk1GHrHZvQD9+pVT/b0256pq8vV7/ueuT9dNHrtL1ExIsSAcAADAwioqKNGPGDEmS3W5XWVmZMjIyDKcCAABDCYsODGK//OY4pSZ2DlZdtatGS5aWSJKee6U0WEAmu6L0q38aZyzjUFbT0KE7nzisH/y2pE8FpCS9sb9Bsx79QP9TUBXmdAAAAAOn+w6dubm5FJAAAGDAMR17EMtIdejf/36sHvrpx5KkZ353VjUNXr24oSJ4zU8fuUpZaWw8MdB8/oAeePojvfVBY4+PZaU5dHWWU6lJ0aqq69D+481q93YNKPZ0+PXIz08oPTlaf3Z7mpWxAQAArkj3EpKp2AAAIByYjj3IBQLSwiePaPu++h4fmz09STufn8ZakGHw/Opyfes/T4ecmzU1Uc/9zVW6Y1pSyO95U6tPv1xXoR8uLQkpI0ekxOjEyzcoMT7KqtgAAAD95na7lZmZKb/fL0k6dOiQpk+fbjgVAAAYapiOPcjZbNJLT4yXyxlaZDkddr30xHgKyDDo8Ab081VlIecemJeunc9P0+zpST1+zxPjo/R//2KU1j0zWVH2rg+66zv035sqrYgMAABwxQoKCoIFZE5OjqZNm2Y4EQAAGIqYjv0ZcFVGrA79z0zVN3etS5gYH6VrRsUZTDV0bd9Xr9Lq9uBxVppDLz0xXjHRl29877p5mL6SN1y/fd0dPLfxD+f07S9lhy0rAADAp3XhVGwbP+UGAABhQAn5GXF1ltN0hIixuyh0HcgH5qUrqY9Tqv9q4YiQEnLP0SYFAmLEKgAAGJQ8Ho8KCwuDx4sXLzaYBgAADGWUkJ8BbR6/DpxoUUVtu2obOzRymEMZqTGaOd6l2JjBOaPeH5A+ONWis26P3PUdio6yaXhKjCZkx2l89sAXqh+dbdOeo03yB6Trxrs0c7zriu/1xw+bQo7vvCGlz++dOT4h5LjdG9C5Jq/Sksx+qbW2tmrTpk2aOXOmrrnmGqNZYI329natX79e1157raZMmWI6Dizg9/u1evVqTZo0ibXcIsjq1as1btw4XX/99aajwCLr169XVlaWbrrppgG5344dO9TU1Pm9j8vl0ty5cwfkvhg4mzZtUmpqqmbNmmU6CiyydetWxcXFafbs2aajwCKFhYWy2+2aP3++6SiwyK5du+TxeJSXl2c6iqUoIQex/R8366e/L1PBnjo1t/l6fDzZFaX8Wal64v7si5ZuZ6o8+uufnQg5t/S7E/q9m/YDT3+kc01dU8Efvy9Ld9087KLXlrg9em55qda/c06V59oves34bKfum52uJ7+crWGJffsjePdTx9TW3rlW0d2zUvXNezMlSWU17fr2i6e1ckeNPtli6W/+z0i99MT4vv7yeqiq6wg5zkiN6fN7E+Lsstmk7ts9Nbf5jJeQXq9Xp0+f1tixY43mgHV8Pp9Onz6tUaNGmY4CiwQCAZ0+fVojRowwHQUWOn36tJKSkkzHgIWKi4sVE9P37016s2nTpuDrvLw8OZ3MvhlsSkpK1NHR0fuFGDLOnj2rxMRE0zFgofLyctntg3OAEcKjvLxcbW1tpmNYjhJyEOrwBvSd/y7Wr9ZVyOe/9OblDS0+vby9WiveqNGj92bq3x65KmTdwjEjY1VceV4nys4Hz63ZXRss8Prijx8169WdNcFjR7RNrzx18ZF0P15RqqeXnVWbx3/Ze54oO68fryjVrwsq9R+PjtNf3Dm81xw7DzWoqbWziJ04unMtzBK3R/MeP6xTFecv99Z+y053yOno+h9ARmrfS9vq+o6QAtJmk/ECEgAA4FIKCgqCr/Pz8w0mAQAAQx3tyCDT7g3oy09/pHVv1/b5PT5/QP+xplzlNe1a8b1rQnZo/vPPDdfTy84Gj1fvqulXCbnijeqQ48W3pmp4SuhP3wMB6bEXTukXayv6fF9Jqm306ivPHVdto1f/+IW+Z5I6C9j53xr4AlKStv506hW/98L1JCdkxykhrm/rSYaT0+lUXl4eo+IiiMPhUF5enjIz+/e1hc8uu92uvLw8jRw50nQUWGjBggVKT083HQMWmj9/vpKTkwfkXkVFRSouLpbU+XfI5z//+QG5LwbWnDlzFB8fbzoGLHTbbbfJ4ejf7DV8tt1yyy2mI8Biubm58nq9vV84xFBCDjKP/epUjwJy2rh4PbI4QzdPTlRqUrSq6zu0u6hRv1pXoRK3J3jdql01mpQTp6cfygmee3B+aAn59geNqjzX3qfRff6AQkZBStLDn+/5j9tfrqvoUUDGx9r1V4tG6u5ZqRozMlY+f0DHS9u0ametXt1ZExzh+UmBOXF0nBbm9n3txW/+4pROlncVkEnxUbpxYoLSkmJ0+zQz09LaPH79eEVpyLkvzx8c/zB0OBy67rrrTMeAhaKionjmEcZms/HMI9DMmTNNR4DFBnLN1+67Yufm5iojI2PA7o2BM3Xqlf+AHJ9NkydPNh0BFmPd/sgzfvyVLyH3WWYLBAKXnu8LS+082KD5TxwOmc77rfuz9OO/CZ1m/YmmVp8eePojbXmvLnguLtausytzQ6YA3/DIIe3/uDl4/MI/jdM37ul9dNTOgw2a963DweOsNIdKVt4YMtLyZPl5zfjrg2o537Vm5bRx8Vr7w8mX3IDmD0eadO/3jsld37W2Tc6IWB3+zXVKvMQu1EmL9wSnY1+d5QwWkBNGxelfvz5G996RGpLLasdL2/S3/35Suw41BM9lpTl0+DfX9XndSwAAACvdeuut2rNnjyTp2Wef1VNPPWU4EQAAGMpY+XQQ+e6vz4QUkH+5YLj+/e/HXrSAlKTE+Ci9+oOJyhkRGzzX5vH3GL344OdCR+Ot2d23qd4r3gy9z9cWjuhR9P1sZVlIAZmd7tDWn0y97A7Ys6YmastPpoSsu1ji9mjpNnefcn1SQN40KUF7X5iu++akWVpA/mZLlX72apm+/78leuTnJzX1oQOa9LX9IQVkWlK0Xnt2MgUkAAAYlNxut957773gMetBAgCAcKOEHCQOnmjR3mNNweNkV5Se/0bvOxknxEXpO1/ODjnXvQyTpAfmpqt7R7frUGPIKMSL6fAGtGZ3Vwlps0kPLQrdcbWp1aflF6wZ+fNvjFVmH3bfvn5Cgh77YlbIuV9vqur1fZ+Ij7Xr99+baKTke/QXp/SdF4v1zO/O6qVNlTp6pjVYHttsnbt37/vvmbpxYoLl2QAAAPqioKBAfn/nZoKjR4/WtGnTDCcCAABDHSXkILG8MLTM+2reCKUnx1zi6lD33p4WcvxhSeg276NHxOqO6V0LmPv8Aa3vZeObbe/Xq7axa5HU269N0oRRcSHXFO6vD06RlqSxmU7dP6fvayA+fn+WoqO62tGiUy0h6zxezpfnD9fYzEuPtjQlJSFauZMSlHSJaeUAAACDQff1IPPz82WzmVvWBgAARAZKyEHiD0dCd1X+4uy0S1zZU3a6Q2t+OEmv/mCiXv3BRD3zcE6Pax68YIOU1bsuX0KueDO0FL3YhjR7jzWHHN8/J039+f51REqM5s4M3d3xvQ+bLnF1qC/c0fffHyvVNXn1vd+U6Jqv7tfat/q+wzkAAIBVPB6PCgsLg8dMxQYAAFZgwbpBoN0b0P6PW4LHdpv6PZW3t1Luvjnp+sdfnlK7t3Pe8I6DDapp6LjoaMtWj1+vvXMueJwYH6X75/a8//sfhRaGN09O7FfmzvckqHBfffB43/EWPTh/eK/vMznVuXXLrZKklvM+1Tf7dKS4VVv21ul/X69SQ0vnyNCahg7dt+RD/fafJ+ireSMudzsAAABL7dixQ01Nnd/HuVwuzZ0712wgAAAQERgJOQi46zp0vt0fPL4qwymXc2Cn86YlRWth7rDgsdcXCCkau9v4h3NqbuuaZv3AvPSL5qmqC11XcsqY+H7nmnpV6Hsqatt7fU90lE0jh/Vtqno4uZxRyk53KO/GFD3/D2N19LfX65bYWT4AABBwSURBVNYpXUVsICD93fMnVeL2GEwJAAAQatOmTcHXeXl5cjoH3xI3AABg6KGEHATqmrwhx6lJ4RmgeuEu2asvsUv273eE7or90KKeU7Elqb45NPeVbBKTmhhaJl54z4tJSRicA3iz0hza9NwUZaR2bczT5vHrl2srDKbq5PP5VFFRoZaWlt4vxpDg9/tVUVGh5ubm3i/GkFFRUREc3YTIUFlZqcbGxt4vxJBRVVWlhoaG3i+8jIKCguDrxYsXf9pICDO32626ujrTMWCh6upqnTt38QEjGJpqampUW8tyXpGktrZW1dXVvV84xFBCDgINLaHFW0JceDY1uXtWasi939hf36MArW/2asverm9yJo+J06ypF59m3dzmDzl2Ofv/xynxgg1cGrttdHMpMdGDd+H01MRo/dMXM0PObd5r/pvGlpYWLVu2TEePHjUdBRbxeDxatmyZioqKTEeBRXw+n5YtW6Z9+/aZjgIL/e53v9OePXtMx4CFVqxYobfffvuK319UVKTi4mJJkt1u11133TVAyRAuq1ev1s6dO03HgIVee+01bd++3XQMWGjz5s3asmWL6Riw0LZt20I2iYsUlJCDQFxs6GPoPjV7ILmcUbrnttTgcYe355TstW/VytPR9fkvNQpS6lkgdp/C3Vet50PfcyVF5mCz8MZhIcfHS9vU8ae1OAEAAEzq/g+e3NxcZWRkGEwDAAAiyWe/8RkCLpzGfOHIyIH05XkXTskOnXq94s2u45hom76y4NKbxKQkhJaQ55r6n/vC91zJlO6BtO94s1btqgn+d6LsfL/vMSYjNuTY6wv0aYRnONlsNsXHxysmxvxamrAGzzwyxcfHy+Fw9H4hhoz4+HjFxsb2fiGGjE/7dd59PUh2xf5siIuL4+s8wsTFxbFWa4RxOp088wjjdDoVFxdnOoblbIFAgCFahjW3+ZS8eI/8f3oSsTF2NRbcIkcYph13eAPKvO891TZ2ln+OaJvc625WsitKlefaNepL78v3pyD33Jaq9c9MvuS9Fj55RNve79rZeuX3J+pLc9Mvef3FfP9/S/TM784Gjx/7Ypae/4exPa5LWrxHTX8q8jLTHCpflduvz3OleZZ8LUc/+Nroft2jocWnlPzQqXF1G24etGtZAgCAyOB2u5WZmSm/v3PWy6FDhzR9+nTDqQAAQKRgJOQgkBAXpcnddpb2dPh16GT/NhD5/HePKvWevcH/Sqsvvst0TLRN98/pKgrbvQFt+EPnArirdtUGC0hJevjzl56KLUk3TkwIOX73SP83Q3j3aOh7Lryn1SaMCv3p08ny/o+EvHCH79gYOwUkAAAwrqCgIFhAjh49WtOmTTOcCAAARBJKyEHi1gs2f1m1s+YSV/bU3ObTzoMNqmvyqq7JK0+7X1npl56m8+DnQqdYr97VWUKueKNrZ6aMVIfuujl0bcML3TLlgsy7akJKzN5U1LZrx4HQ3R0v/H2w2vjs0OHQuw41qL9jhd/+IHSX0vHZDKsHAADmdV8PMj8/Xzbb4N3sDwAADD2UkINE99GJkvSbLVV9XmPx1Z01IZvZ3Dw5UfbLfE95+7QkjR7Rta7MtvfrVXSqRXuOdY1K/MqC4YqOuvw3pp+7PiVkDceymnYt3eruU2ZJ+snvy0JKy+snJGhcptnCbsbVrpCNgkrcHm3fV3+Zd/T00qbKkOOFuSkDkg0AAOBKeTweFRYWBo9ZDxIAAFiNEnKQWHBDiiaM6hqFV9vo1T/+8lSvo/AaWnz64dKzIee+MDvtsu+x26QH53eVnufb/XroJydCPldvU7ElKT7Wrq/mjQg5991fn9Gpit6nMO882KAX1leEnPuHPzO/O2N8rF2Lb0kNOffEf51Wq6dvO5b/an2F/vhRc/DYZpMenH/pzX0AAACssHPnTjU1df7A2eVyae7cuWYDAQCAiEMJOUjYbNIzD+WEnFteWK1Hfn7ikgVYXZNXX/j+MZW4PcFz6ckx+sqCERe9vrsLi7H9H3cVZ7OmJmpSTt92afr2l7KV7OraJbu6vkMLvn0k5H4XWv92re7+l2Py+rpaz8lj4vTnnxscZd23H8hW99lJh0+3atGTR1RWc/F1NqXODX+ee6VUj/3qdMj5e29PM77OJQAAQPep2Hl5eezCCgAALMduGYPIA/PStWZ3rVbt6loP8tcFVdr6x3r91aIRumVKokakxKi20au3ihr10qZKues7Qu7xo6/nhJSClzJzvEtTxsTr6JnWHh/ryyjIT4wa7tDPvzFWX/+3E8FzpyrO6+ZvFOmLs9N096xUXZXhlM8f0LEzrXp1Z43e2B+6DmR0lE1Lv3uNnI7B0YnfNClBjyzO0Isbu6ZVv/VBo8b/5T7dNydNs6cna/Rwh2IddtU0dOiPHzbr1Z01OlPlCblPdrpDv/jmOKvjAwAA9FBQUBB8vXjxYoNJAABApLIFAv3ddgPh1HLep3v+5ViPoq4vHsnP0IuPX93n6599+ay+95uSkHMuZ5QqVucqMb73IrO7JUtLekwL74vYGLuWP3WNvtjLFPKkxXvU1OqTJGWmOVS+Krffn6s/PB1+3fXdo3rzQP+fg9S5sc/m56bougmuAU4GAADQP0VFRZoxY4YkyW63q6ysTBkZ5pfBAQAAkWVwDD1DkMsZpU3/OkV/f3eGoi63u0w30VE2/ejrY/Rfj/W9gJQ6p2RfuCni/XPT+l1AStKSr+Xo10+MV2pi3wfXThgVp9d/MqXXAtKE2Bi7tvxkqr55b+ZlN/m5mLtuHqYDL82ggAQAAINC96nYubm5FJAAAMAIRkIOYvs/btYv1lZo4x/OXXSn7JHDYnTPbWn6zgPZGp99Zev67C5qVHtH15qTU66KV1aa44ozn2vy6vlV5Vr/Tq0On+451TvKbtOtUxP1wLx0/e3iDDmi+9bw7TjYIN+f1pCMddh1x7SkK87YXx+catULr1XotXfOqfLcxdeFzEh16M4bkvXNe7N006TBtwZka2urNm/erBkzZmjChAmm48AC7e3t2rBhg6ZOnarJkyebjgML+P1+rV27VhMnTtS0adNMx4FF1q5dq7Fjx+q6664zHQUW2bBhgzIzM5Wb2/dZIbfeeqv27NkjSXr22Wf11FNPhSsewmDz5s1KTU3VLbfcYjoKLLJt2zbFxcXpjjvuMB0FFnnzzTdls9k0b94801Fgkd27d8vj8WjBggWmo1iKNSEHsesnJOi3/zxBXl9Ax0vbVFHbrnNNXqUlxSg73aFrRsX1GMnYX7OnD2yZl5oYrWceztEzD+eoorZdxVUeues6FGXvLOrGZTn7NVryE/NmJg9ozv6YNi5eLz5+tf7rsat1psqj4srzqmnwKiqqcyOgzFTHFZfAVvF6vTp58qTGjBljOgos4vP5dPLkSWVlZZmOAosEAgGdPHlS6enppqPAQidPnlRCwuD74RfC59SpU4qK6vusFbfbrffeey94zHqQnz3FxcXyeDy9X4gho6SkRImJiaZjwEKlpaWy25moGknKysrU1tZmOoblKCE/A6KjbJoyJl5TxsSbjtIvmWkOZX6KUZWDjc0mXZURq6syYk1HAQAA6JOCggL5/Z2zXkaPHq3p06cbTgQAACIVJSQQAZxOpxYsWKBRo0aZjgKLxMTEaMGCBYyEjCB2u10LFizQyJEjTUeBhe68805Gv0aYefPmKSUlpc/Xb9q0Kfg6Pz9ftk87jQaWmz17tuLjP1uDEfDpzJo1Sw7H0BnMgd7ddNNN/P0cYW688UZ5vT2X3RvqWBMSAAAAGII8Ho+GDx+upqYmSdKWLVu0aNEiw6kAAECkYtEBAAAAYAjauXNnsIB0uVyaO3eu2UAAACCiUUICAAAAQ9DGjRuDr/Py8uR0Du6N9AAAwNBGCQkAAAAMQQUFBcHX7IoNAABMY01IAAAAYIgpKirSjBkzJHVuXFVWVqaMjAzDqQAAQCRjJCQAAAAwxHTfFTs3N5cCEgAAGEcJCQAAAAwx3deDZCo2AAAYDJiODQAAAAwhbrdbmZmZ8vv9kqSDBw8Gp2YDAACYwkhIIAL4fD5VVlaqtbXVdBRYJBAIqLKyUi0tLaajwEKVlZVqamoyHQMWqqqqUmNjo+kYsJDb7VZDQ8NlrykoKAgWkKNHj9b06dOtiIYwqa6uVn19vekYsFBNTY3q6upMx4CFamtrde7cOdMxYKG6ujrV1taajmE5SkggArS0tGjp0qU6cuSI6SiwyPnz57V06VIdOnTIdBRYxOfzaenSpdq3b5/pKLDQsmXLtGfPHtMxYKFXXnlFb7/99mWv6b4eZH5+vmw2W7hjIYxWrVqlHTt2mI4BC61fv17btm0zHQMWKigo0ObNm03HgIVef/11vfbaa6ZjWC7adAAA4ffRRx9pw4YN2rt3r4YPH246jqWOHDmipqYmzZgxQ3FxcabjWKaurk67d+/WqlWrdMMNN5iOY6kPP/xQdXV1mj59ulwul+k4lmlqatKOHTs0cuRI3XzzzabjWOr48eOqqanRtddeq6SkJNNxLNPa2qo33nhDaWlpmjVrluk4ljp16pQqKys1ZcoUpaSkmI5jmfPnz6uwsFDJycnasGHDJa/rXl6wHiQAABgsKCGBCPDII4/owIEDpmMYVVRUZDqCEVVVVRE7Mu6DDz4wHcGIysrKiB0Be/jwYdMRjKioqIjYX3uk/rrLy8t17NixXq9zuVyaN2+eBYkQTk6nUw6Hw3QMWMjpdCo2NtZ0DFgoNjaWUesRJjY2Nrh0SiRhYxogAsyfP59pPAAARJh77rlH69evNx0DAABAEiUkEBHcbrdeeeUVeTwe01Esd/z4cdXW1urGG29UTEyM6TiWaW1t1YEDBzRq1CiNGTPGdBxLnTx5UlVVVbrhhhsiahSBx+PRvn37lJGRoXHjxpmOY6nTp0+rvLxc119/fUQtu9De3q59+/YpPT1dEyZMMB3HUmfPntWZM2d03XXXRdSyC16vV/v27VNSUpImT57c6/Vz5szRLbfcYkEyAACA3lFCAgAAAAAAAAgrdscGAAAAAAAAEFaUkAAAAAAAAADCihISAAAAAAAAQFhRQgIAAAAAAAAIK0pIAAAAAAAAAGFFCQkAAAAAAAAgrCghgQjQ2tqqNWvW6MSJE6ajwCLt7e1as2aNPvzwQ9NRYBG/3681a9bo8OHDpqPAQuvWrdPBgwdNx4CFNm7cqPfff990DFhoy5Yt2rNnj+kYsND27dv19ttvm44BC+3YsUO7du0yHQMWeuutt1RYWGg6huWiTQcAEH5er1cnTpxQTk6O6SiwiM/n04kTJ5SZmWk6CiwSCAR04sQJpaWlmY4CC504cUIul8t0DFjo5MmTstsZRxBJTp8+rfPnz5uOAQudOXNGiYmJpmPAQmfPnuXv9ghTWlqqtrY20zEsx59yAAAAAAAAAGEVtWTJkiWmQwAIL5vNJpfLpZycHCUkJJiOAwvYbDbFx8crJyeHn6RHCJvNJqfTqZycHCUlJZmOA4s4nU6NGTNGycnJpqPAIrGxsRo9erSGDRtmOgos8skzT01NNR0FFomNjVV2djazGyKIw+FQdna20tPTTUeBRT555sOHDzcdxVK2QCAQMB0CAAAAAAAAwND1/wGRhqMV5kZRZAAAAABJRU5ErkJggg==;imageBackground=none;clipPath=inset(0% 3.33% 0.47% 17.33%);" vertex="1" parent="1">
          <mxGeometry x="240" y="285.8" width="451" height="201.81" as="geometry" />
        </mxCell>
        <mxCell id="UOA3We7-B9F3SWthIIVE-2" value="&lt;font face=&quot;Times New Roman&quot; style=&quot;font-size: 17px;&quot;&gt;sabirnica&lt;/font&gt;" style="text;html=1;align=center;verticalAlign=middle;resizable=0;points=[];autosize=1;strokeColor=none;fillColor=none;fontSize=17;" vertex="1" parent="1">
          <mxGeometry x="160" y="290" width="80" height="30" as="geometry" />
        </mxCell>
        <mxCell id="UOA3We7-B9F3SWthIIVE-3" value="&lt;div&gt;&lt;font face=&quot;Times New Roman&quot;&gt;čvor A&lt;br&gt;&lt;/font&gt;&lt;/div&gt;" style="text;html=1;align=center;verticalAlign=middle;resizable=0;points=[];autosize=1;strokeColor=none;fillColor=none;fontSize=17;" vertex="1" parent="1">
          <mxGeometry x="170" y="370" width="70" height="30" as="geometry" />
        </mxCell>
        <mxCell id="UOA3We7-B9F3SWthIIVE-4" value="&lt;div&gt;&lt;font face=&quot;Times New Roman&quot;&gt;čvor B&lt;br&gt;&lt;/font&gt;&lt;/div&gt;" style="text;html=1;align=center;verticalAlign=middle;resizable=0;points=[];autosize=1;strokeColor=none;fillColor=none;fontSize=17;" vertex="1" parent="1">
          <mxGeometry x="170" y="410" width="70" height="30" as="geometry" />
        </mxCell>
        <mxCell id="UOA3We7-B9F3SWthIIVE-5" value="&lt;div&gt;&lt;font face=&quot;Times New Roman&quot;&gt;čvor C&lt;br&gt;&lt;/font&gt;&lt;/div&gt;" style="text;html=1;align=center;verticalAlign=middle;resizable=0;points=[];autosize=1;strokeColor=none;fillColor=none;fontSize=17;" vertex="1" parent="1">
          <mxGeometry x="170" y="450" width="70" height="30" as="geometry" />
        </mxCell>
      </root>
    </mxGraphModel>
  </diagram>
</mxfile>
